<svg xmlns="http://www.w3.org/2000/svg" xmlns:xlink="http://www.w3.org/1999/xlink" xmlns:lucid="lucid" width="3821" height="2021"><g transform="translate(-739.5 340.5)" lucid:page-tab-id="0_0"><path d="M500-500h4500v2500H500z" fill="#fff"/><path d="M2560-64.97v-55a8 8 0 0 1 8-8h1024a8 8 0 0 1 8 8v55z" stroke="#000" stroke-width="5" fill="#fff"/><path d="M3600-64.97v1515.65a8 8 0 0 1-8 8H2568a8 8 0 0 1-8-8V-64.97z" stroke="#000" stroke-width="5" fill="none"/><use xlink:href="#a" transform="matrix(1,0,0,1,2560,-127.97294789810485) translate(413.16666666666663 39.5)"/><path d="M4050 1046.68a8 8 0 0 1 8-8h404a8 8 0 0 1 8 8v224a8 8 0 0 1-8 8h-404a8 8 0 0 1-8-8z" stroke="#000" stroke-width="7" fill="#fcce14"/><path d="M760-312a8 8 0 0 1 8-8h3764a8 8 0 0 1 8 8v1964a8 8 0 0 1-8 8H768a8 8 0 0 1-8-8z" stroke="#000" fill-opacity="0"/><path d="M1760 218.2v-55a8 8 0 0 1 8-8h444a8 8 0 0 1 8 8v55z" stroke="#000" stroke-width="5" fill="#fff"/><path d="M2220 218.2v938.48a8 8 0 0 1-8 8h-444a8 8 0 0 1-8-8V218.2z" stroke="#000" stroke-width="5" fill="none"/><use xlink:href="#b" transform="matrix(1,0,0,1,1760,155.20983589152502) translate(156.88888888888889 39.5)"/><path d="M1900 264.68h260v270h-260z" fill="#fff"/><path d="M1900 354.68v46h260v-46M1900 444.68v46h260v-46" fill="#e6e6e6"/><path d="M1900 309.68v-45h260v45" fill="#ba23f6"/><path d="M1900 264.68h260v270h-260zM1900 309.68h260M1994.1 309.68v225" stroke="#333" stroke-width="3" fill="none"/><use xlink:href="#c" transform="matrix(1,0,0,1,1910,264.67692483082897) translate(5 29.433333333333334)"/><use xlink:href="#d" transform="matrix(1,0,0,1,1905,312.17692483082897) translate(18.5 23.6)"/><use xlink:href="#e" transform="matrix(1,0,0,1,1999.1104635713168,312.17692483082897) translate(5 26.933333333333334)"/><use xlink:href="#f" transform="matrix(1,0,0,1,1905,357.17692483082897) translate(19.224999999999998 23.6)"/><use xlink:href="#g" transform="matrix(1,0,0,1,1999.1104635713168,357.17692483082897) translate(5 26.933333333333334)"/><use xlink:href="#h" transform="matrix(1,0,0,1,1905,402.17692483082897) translate(14.224999999999998 23.6)"/><use xlink:href="#i" transform="matrix(1,0,0,1,1999.1104635713168,402.17692483082897) translate(5 26.933333333333334)"/><use xlink:href="#j" transform="matrix(1,0,0,1,1905,447.17692483082897) translate(16.074999999999996 23.6)"/><use xlink:href="#k" transform="matrix(1,0,0,1,1999.1104635713168,447.17692483082897) translate(5 26.933333333333334)"/><use xlink:href="#l" transform="matrix(1,0,0,1,1905,492.17692483082897) translate(8.574999999999996 23.6)"/><use xlink:href="#m" transform="matrix(1,0,0,1,1999.1104635713168,492.17692483082897) translate(5 26.933333333333334)"/><path d="M960 334.06h440v696H960z" fill="#fff"/><path d="M960 450.06v59h440v-59M960 566.06v59h440v-59M960 682.06v59h440v-59M960 798.06v59h440v-59M960 914.06v59h440v-59" fill="#e6e6e6"/><path d="M960 392.06v-58h440v58" fill="#e81313"/><path d="M960 334.06h440v696H960zM960 392.06h440M1167.8 392.06v638" stroke="#333" stroke-width="3" fill="none"/><use xlink:href="#n" transform="matrix(1,0,0,1,970,334.05714878274057) translate(41.5 37)"/><use xlink:href="#o" transform="matrix(1,0,0,1,970,334.05714878274057) translate(145.61111111111111 37)"/><use xlink:href="#p" transform="matrix(1,0,0,1,970,334.05714878274057) translate(292.05555555555554 37)"/><use xlink:href="#q" transform="matrix(1,0,0,1,965,394.55714878274057) translate(51.22222222222223 34.5)"/><use xlink:href="#r" transform="matrix(1,0,0,1,1172.8046855680448,394.55714878274057) translate(0 34.5)"/><use xlink:href="#s" transform="matrix(1,0,0,1,965,452.55714878274057) translate(47.277777777777786 34.5)"/><use xlink:href="#t" transform="matrix(1,0,0,1,1172.8046855680448,452.55714878274057) translate(0 34.5)"/><use xlink:href="#u" transform="matrix(1,0,0,1,965,510.55714878274057) translate(36.166666666666664 34.5)"/><use xlink:href="#v" transform="matrix(1,0,0,1,1172.8046855680448,510.55714878274057) translate(0 34.5)"/><use xlink:href="#w" transform="matrix(1,0,0,1,965,568.5571487827406) translate(40.277777777777786 34.5)"/><use xlink:href="#x" transform="matrix(1,0,0,1,1172.8046855680448,568.5571487827406) translate(0 34.5)"/><use xlink:href="#y" transform="matrix(1,0,0,1,965,626.5571487827406) translate(23.611111111111114 34.5)"/><use xlink:href="#z" transform="matrix(1,0,0,1,1172.8046855680448,626.5571487827406) translate(0 34.5)"/><use xlink:href="#y" transform="matrix(1,0,0,1,965,684.5571487827406) translate(23.611111111111114 34.5)"/><use xlink:href="#A" transform="matrix(1,0,0,1,1172.8046855680448,684.5571487827406) translate(0 34.5)"/><use xlink:href="#u" transform="matrix(1,0,0,1,965,742.5571487827406) translate(36.166666666666664 34.5)"/><use xlink:href="#B" transform="matrix(1,0,0,1,1172.8046855680448,742.5571487827406) translate(0 34.5)"/><use xlink:href="#u" transform="matrix(1,0,0,1,965,800.5571487827406) translate(36.166666666666664 34.5)"/><use xlink:href="#C" transform="matrix(1,0,0,1,1172.8046855680448,800.5571487827406) translate(0 34.5)"/><use xlink:href="#u" transform="matrix(1,0,0,1,965,858.5571487827406) translate(36.166666666666664 34.5)"/><use xlink:href="#D" transform="matrix(1,0,0,1,1172.8046855680448,858.5571487827406) translate(0 34.5)"/><use xlink:href="#u" transform="matrix(1,0,0,1,965,916.5571487827406) translate(36.166666666666664 34.5)"/><use xlink:href="#E" transform="matrix(1,0,0,1,1172.8046855680448,916.5571487827406) translate(0 34.5)"/><use xlink:href="#F" transform="matrix(1,0,0,1,965,974.5571487827406) translate(82.33333333333334 34.5)"/><use xlink:href="#G" transform="matrix(1,0,0,1,1172.8046855680448,974.5571487827406) translate(0 34.5)"/><path d="M880-24a16 16 0 0 1 16-16h254.6a16 16 0 0 1 16 16v170.93a16 16 0 0 1-16 16H896a16 16 0 0 1-16-16z" stroke="#4c535d" stroke-width="2" fill="#fff"/><path d="M936 30.93c0 6.63-5.37 12-12 12s-12-5.37-12-12c0-6.62 5.37-12 12-12s12 5.38 12 12z" stroke="#000" stroke-opacity=".25" fill="#ba23f6"/><path d="M936 62.93c0 6.63-5.37 12-12 12s-12-5.37-12-12c0-6.62 5.37-12 12-12s12 5.38 12 12z" stroke="#000" stroke-opacity=".25" fill="#e81313"/><path d="M936 94.93c0 6.63-5.37 12-12 12s-12-5.37-12-12c0-6.62 5.37-12 12-12s12 5.38 12 12z" stroke="#000" stroke-opacity=".25" fill="#008a0e"/><path d="M936 126.93c0 6.63-5.37 12-12 12s-12-5.37-12-12c0-6.62 5.37-12 12-12s12 5.38 12 12z" stroke="#000" stroke-opacity=".25" fill="#00c2a8"/><use xlink:href="#H" transform="matrix(1,0,0,1,912,-16) translate(0 17.988888888888887)"/><use xlink:href="#I" transform="matrix(1,0,0,1,912,-16) translate(95.88765432098764 17.988888888888887)"/><use xlink:href="#J" transform="matrix(1,0,0,1,948,18.93333333333333) translate(0 15.688888888888886)"/><use xlink:href="#K" transform="matrix(1,0,0,1,948,18.93333333333333) translate(67.57839506172837 15.688888888888886)"/><use xlink:href="#L" transform="matrix(1,0,0,1,948,50.93333333333334) translate(0 15.688888888888888)"/><use xlink:href="#M" transform="matrix(1,0,0,1,948,50.93333333333334) translate(41.909876543209876 15.688888888888888)"/><use xlink:href="#N" transform="matrix(1,0,0,1,948,82.93333333333334) translate(0 15.555555555555555)"/><use xlink:href="#O" transform="matrix(1,0,0,1,948,82.93333333333334) translate(104.83950617283949 15.555555555555555)"/><use xlink:href="#P" transform="matrix(1,0,0,1,948,114.93333333333334) translate(0 15.555555555555555)"/><use xlink:href="#Q" transform="matrix(1,0,0,1,948,114.93333333333334) translate(72 15.555555555555555)"/><use xlink:href="#O" transform="matrix(1,0,0,1,948,114.93333333333334) translate(145.97530864197532 15.555555555555555)"/><path d="M1900 587.76h260v180h-260z" fill="#fff"/><path d="M1900 677.76v46h260v-46" fill="#e6e6e6"/><path d="M1900 632.76v-45h260v45" fill="#ba23f6"/><path d="M1900 587.76h260v180h-260zM1900 632.76h260M1994.1 632.76v135" stroke="#333" stroke-width="3" fill="none"/><use xlink:href="#R" transform="matrix(1,0,0,1,1910,587.756188121232) translate(5 29.433333333333334)"/><use xlink:href="#d" transform="matrix(1,0,0,1,1905,635.256188121232) translate(18.5 23.6)"/><use xlink:href="#e" transform="matrix(1,0,0,1,1999.1104635713168,635.256188121232) translate(5 26.933333333333334)"/><use xlink:href="#l" transform="matrix(1,0,0,1,1905,680.256188121232) translate(8.574999999999996 23.6)"/><use xlink:href="#S" transform="matrix(1,0,0,1,1999.1104635713168,680.256188121232) translate(5 26.933333333333334)"/><use xlink:href="#l" transform="matrix(1,0,0,1,1905,725.256188121232) translate(8.574999999999996 23.6)"/><use xlink:href="#m" transform="matrix(1,0,0,1,1999.1104635713168,725.256188121232) translate(5 26.933333333333334)"/><path d="M1900 847.76h260v270h-260z" fill="#fff"/><path d="M1900 937.76v46h260v-46M1900 1027.76v46h260v-46" fill="#e6e6e6"/><path d="M1900 892.76v-45h260v45" fill="#ba23f6"/><path d="M1900 847.76h260v270h-260zM1900 892.76h260M1994.1 892.76v225" stroke="#333" stroke-width="3" fill="none"/><use xlink:href="#T" transform="matrix(1,0,0,1,1910,847.7561881212321) translate(5 29.433333333333334)"/><use xlink:href="#d" transform="matrix(1,0,0,1,1905,895.2561881212321) translate(18.5 23.6)"/><use xlink:href="#e" transform="matrix(1,0,0,1,1999.1104635713168,895.2561881212321) translate(5 26.933333333333334)"/><use xlink:href="#h" transform="matrix(1,0,0,1,1905,940.2561881212321) translate(14.224999999999998 23.6)"/><use xlink:href="#U" transform="matrix(1,0,0,1,1999.1104635713168,940.2561881212321) translate(5 26.933333333333334)"/><use xlink:href="#h" transform="matrix(1,0,0,1,1905,985.2561881212321) translate(14.224999999999998 23.6)"/><use xlink:href="#V" transform="matrix(1,0,0,1,1999.1104635713168,985.2561881212321) translate(5 26.933333333333334)"/><use xlink:href="#h" transform="matrix(1,0,0,1,1905,1030.256188121232) translate(14.224999999999998 23.6)"/><use xlink:href="#W" transform="matrix(1,0,0,1,1999.1104635713168,1030.256188121232) translate(5 26.933333333333334)"/><use xlink:href="#h" transform="matrix(1,0,0,1,1905,1075.256188121232) translate(14.224999999999998 23.6)"/><use xlink:href="#X" transform="matrix(1,0,0,1,1999.1104635713168,1075.256188121232) translate(5 26.933333333333334)"/><path d="M1421.5 419.87H1798a12 12 0 0 1 12 12v470.87a12 12 0 0 0 12 12h58.27" stroke="#000" stroke-width="3" fill="none"/><path d="M1421.5 429.87v-20M1401.5 419.87h20" stroke="#000" stroke-width="3" fill="#fff"/><path d="M1897.83 924.74l-20-10 20-10" stroke="#000" stroke-width="3" fill="#fff" fill-opacity="0"/><path d="M1897.83 914.74h-20" stroke="#000" stroke-width="3" fill="#fff"/><path d="M1421.5 419.87H1798a12 12 0 0 0 12-12V343.4a12 12 0 0 1 12-12h58.27" stroke="#000" stroke-width="3" fill="none"/><path d="M1421.5 429.87v-20M1401.5 419.87h20" stroke="#000" stroke-width="3" fill="#fff"/><path d="M1897.83 341.4l-20-10 20-10" stroke="#000" stroke-width="3" fill="#fff" fill-opacity="0"/><path d="M1897.83 331.4h-20" stroke="#000" stroke-width="3" fill="#fff"/><path d="M1421.5 419.87H1798a12 12 0 0 1 12 12V643a12 12 0 0 0 12 12h58.27" stroke="#000" stroke-width="3" fill="none"/><path d="M1421.5 429.87v-20M1401.5 419.87h20" stroke="#000" stroke-width="3" fill="#fff"/><path d="M1897.83 665l-20-10 20-10" stroke="#000" stroke-width="3" fill="#fff" fill-opacity="0"/><path d="M1897.83 655h-20" stroke="#000" stroke-width="3" fill="#fff"/><path d="M1421.5 652.93h157.95a.05.05 0 0 1 .05.05.05.05 0 0 0 .05.04h152" stroke="#000" stroke-width="10" fill="none"/><path d="M1421.5 662.93v-20M1401.5 652.93h20" stroke="#000" stroke-width="10" fill="#fff"/><path d="M1747.68 653.02l-12.9 7.64V645.4z" stroke="#000" stroke-width="10"/><use xlink:href="#Y" transform="matrix(1,0,0,1,1471.3901583416553,600.9256295083642) translate(0.0049999999999954525 32)"/><path d="M3280 89.4h260v270h-260z" fill="#fff"/><path d="M3280 179.4v46h260v-46M3280 269.4v46h260v-46" fill="#e6e6e6"/><path d="M3280 134.4v-45h260v45" fill="#008a0e"/><path d="M3280 89.4h260v270h-260zM3280 134.4h260M3374.1 134.4v225" stroke="#333" stroke-width="3" fill="none"/><use xlink:href="#c" transform="matrix(1,0,0,1,3290,89.38570260947381) translate(5 29.433333333333334)"/><use xlink:href="#Z" transform="matrix(1,0,0,1,3285,136.8857026094738) translate(19.025 23.6)"/><use xlink:href="#e" transform="matrix(1,0,0,1,3379.110463571317,136.8857026094738) translate(5 26.933333333333334)"/><use xlink:href="#f" transform="matrix(1,0,0,1,3285,181.8857026094738) translate(19.224999999999998 23.6)"/><use xlink:href="#g" transform="matrix(1,0,0,1,3379.110463571317,181.8857026094738) translate(5 26.933333333333334)"/><use xlink:href="#h" transform="matrix(1,0,0,1,3285,226.8857026094738) translate(14.224999999999998 23.6)"/><use xlink:href="#i" transform="matrix(1,0,0,1,3379.110463571317,226.8857026094738) translate(5 26.933333333333334)"/><use xlink:href="#j" transform="matrix(1,0,0,1,3285,271.8857026094738) translate(16.074999999999996 23.6)"/><use xlink:href="#k" transform="matrix(1,0,0,1,3379.110463571317,271.8857026094738) translate(5 26.933333333333334)"/><use xlink:href="#l" transform="matrix(1,0,0,1,3285,316.8857026094738) translate(8.574999999999996 23.6)"/><use xlink:href="#m" transform="matrix(1,0,0,1,3379.110463571317,316.8857026094738) translate(5 26.933333333333334)"/><path d="M2620 1158.8h260v180h-260z" fill="#fff"/><path d="M2620 1248.8v46h260v-46" fill="#e6e6e6"/><path d="M2620 1203.8v-45h260v45" fill="#008a0e"/><path d="M2620 1158.8h260v180h-260zM2620 1203.8h260M2714.1 1203.8v135" stroke="#333" stroke-width="3" fill="none"/><use xlink:href="#R" transform="matrix(1,0,0,1,2630,1158.799153621182) translate(5 29.433333333333334)"/><use xlink:href="#Z" transform="matrix(1,0,0,1,2625,1206.299153621182) translate(19.025 23.6)"/><use xlink:href="#aa" transform="matrix(1,0,0,1,2719.110463571317,1206.299153621182) translate(5 26.933333333333334)"/><use xlink:href="#l" transform="matrix(1,0,0,1,2625,1251.299153621182) translate(8.574999999999996 23.6)"/><use xlink:href="#m" transform="matrix(1,0,0,1,2719.110463571317,1251.299153621182) translate(5 26.933333333333334)"/><use xlink:href="#l" transform="matrix(1,0,0,1,2625,1296.299153621182) translate(8.574999999999996 23.6)"/><use xlink:href="#S" transform="matrix(1,0,0,1,2719.110463571317,1296.299153621182) translate(5 26.933333333333334)"/><path d="M3280 1078.8h260v315h-260z" fill="#fff"/><path d="M3280 1168.8v46h260v-46M3280 1258.8v46h260v-46M3280 1348.8v45h260v-45" fill="#e6e6e6"/><path d="M3280 1123.8v-45h260v45" fill="#008a0e"/><path d="M3280 1078.8h260v315h-260zM3280 1123.8h260M3374.1 1123.8v270" stroke="#333" stroke-width="3" fill="none"/><use xlink:href="#T" transform="matrix(1,0,0,1,3290,1078.799153621182) translate(5 29.433333333333334)"/><use xlink:href="#Z" transform="matrix(1,0,0,1,3285,1126.299153621182) translate(19.025 23.6)"/><use xlink:href="#e" transform="matrix(1,0,0,1,3379.110463571317,1126.299153621182) translate(5 26.933333333333334)"/><use xlink:href="#h" transform="matrix(1,0,0,1,3285,1171.299153621182) translate(14.224999999999998 23.6)"/><use xlink:href="#U" transform="matrix(1,0,0,1,3379.110463571317,1171.299153621182) translate(5 26.933333333333334)"/><use xlink:href="#h" transform="matrix(1,0,0,1,3285,1216.299153621182) translate(14.224999999999998 23.6)"/><use xlink:href="#V" transform="matrix(1,0,0,1,3379.110463571317,1216.299153621182) translate(5 26.933333333333334)"/><use xlink:href="#h" transform="matrix(1,0,0,1,3285,1261.299153621182) translate(14.224999999999998 23.6)"/><use xlink:href="#W" transform="matrix(1,0,0,1,3379.110463571317,1261.299153621182) translate(5 26.933333333333334)"/><use xlink:href="#h" transform="matrix(1,0,0,1,3285,1306.299153621182) translate(14.224999999999998 23.6)"/><use xlink:href="#X" transform="matrix(1,0,0,1,3379.110463571317,1306.299153621182) translate(5 26.933333333333334)"/><use xlink:href="#ab" transform="matrix(1,0,0,1,3285,1351.299153621182) translate(21.525 23.6)"/><use xlink:href="#aa" transform="matrix(1,0,0,1,3379.110463571317,1351.299153621182) translate(5 26.933333333333334)"/><path d="M2242.5 659.94h289.06" stroke="#000" stroke-width="10" fill="none"/><path d="M2242.5 669.94v-20M2222.5 659.94h20" stroke="#000" stroke-width="10" fill="#fff"/><path d="M2547.68 659.94l-12.9 7.64-.02-15.27z" stroke="#000" stroke-width="10"/><use xlink:href="#ac" transform="matrix(1,0,0,1,2273.222222222222,607.943380361177) translate(0.0049999999999954525 32)"/><path d="M2940 498.8h260v540h-260z" fill="#fff"/><path d="M2940 588.8v46h260v-46M2940 678.8v46h260v-46M2940 768.8v46h260v-46M2940 858.8v46h260v-46M2940 948.8v46h260v-46" fill="#e6e6e6"/><path d="M2940 543.8v-45h260v45" fill="#008a0e"/><path d="M2940 498.8h260v540h-260zM2940 543.8h260M3034.1 543.8v495" stroke="#000" stroke-width="6" fill="none"/><use xlink:href="#ad" transform="matrix(1,0,0,1,2950,498.79915362118186) translate(5 29.433333333333334)"/><use xlink:href="#d" transform="matrix(1,0,0,1,2945,546.2991536211819) translate(18.5 23.6)"/><use xlink:href="#e" transform="matrix(1,0,0,1,3039.110463571317,546.2991536211819) translate(5 26.933333333333334)"/><use xlink:href="#f" transform="matrix(1,0,0,1,2945,591.2991536211819) translate(19.224999999999998 23.6)"/><use xlink:href="#g" transform="matrix(1,0,0,1,3039.110463571317,591.2991536211819) translate(5 26.933333333333334)"/><use xlink:href="#h" transform="matrix(1,0,0,1,2945,636.2991536211819) translate(14.224999999999998 23.6)"/><use xlink:href="#i" transform="matrix(1,0,0,1,3039.110463571317,636.2991536211819) translate(5 26.933333333333334)"/><use xlink:href="#j" transform="matrix(1,0,0,1,2945,681.2991536211819) translate(16.074999999999996 23.6)"/><use xlink:href="#k" transform="matrix(1,0,0,1,3039.110463571317,681.2991536211819) translate(5 26.933333333333334)"/><use xlink:href="#l" transform="matrix(1,0,0,1,2945,726.2991536211819) translate(8.574999999999996 23.6)"/><use xlink:href="#S" transform="matrix(1,0,0,1,3039.110463571317,726.2991536211819) translate(5 26.933333333333334)"/><use xlink:href="#l" transform="matrix(1,0,0,1,2945,771.2991536211819) translate(8.574999999999996 23.6)"/><use xlink:href="#m" transform="matrix(1,0,0,1,3039.110463571317,771.2991536211819) translate(5 26.933333333333334)"/><use xlink:href="#h" transform="matrix(1,0,0,1,2945,816.2991536211819) translate(14.224999999999998 23.6)"/><use xlink:href="#U" transform="matrix(1,0,0,1,3039.110463571317,816.2991536211819) translate(5 26.933333333333334)"/><use xlink:href="#h" transform="matrix(1,0,0,1,2945,861.2991536211819) translate(14.224999999999998 23.6)"/><use xlink:href="#V" transform="matrix(1,0,0,1,3039.110463571317,861.2991536211819) translate(5 26.933333333333334)"/><use xlink:href="#h" transform="matrix(1,0,0,1,2945,906.2991536211819) translate(14.224999999999998 23.6)"/><use xlink:href="#W" transform="matrix(1,0,0,1,3039.110463571317,906.2991536211819) translate(5 26.933333333333334)"/><use xlink:href="#h" transform="matrix(1,0,0,1,2945,951.2991536211819) translate(14.224999999999998 23.6)"/><use xlink:href="#X" transform="matrix(1,0,0,1,3039.110463571317,951.2991536211819) translate(5 26.933333333333334)"/><use xlink:href="#Z" transform="matrix(1,0,0,1,2945,996.2991536211819) translate(19.025 23.6)"/><use xlink:href="#aa" transform="matrix(1,0,0,1,3039.110463571317,996.2991536211819) translate(5 26.933333333333334)"/><path d="M2620 111.9h260v225h-260z" fill="#fff"/><path d="M2620 201.9v46h260v-46M2620 291.9v45h260v-45" fill="#e6e6e6"/><path d="M2620 156.9v-45h260v45" fill="#008a0e"/><path d="M2620 111.9h260v225h-260zM2620 156.9h260M2714.1 156.9v180" stroke="#333" stroke-width="3" fill="none"/><use xlink:href="#ae" transform="matrix(1,0,0,1,2630,111.88570260947381) translate(5 29.433333333333334)"/><use xlink:href="#Z" transform="matrix(1,0,0,1,2625,159.3857026094738) translate(19.025 23.6)"/><use xlink:href="#aa" transform="matrix(1,0,0,1,2719.110463571317,159.3857026094738) translate(5 26.933333333333334)"/><use xlink:href="#h" transform="matrix(1,0,0,1,2625,204.3857026094738) translate(14.224999999999998 23.6)"/><use xlink:href="#U" transform="matrix(1,0,0,1,2719.110463571317,204.3857026094738) translate(5 26.933333333333334)"/><use xlink:href="#h" transform="matrix(1,0,0,1,2625,249.3857026094738) translate(14.224999999999998 23.6)"/><use xlink:href="#W" transform="matrix(1,0,0,1,2719.110463571317,249.3857026094738) translate(5 26.933333333333334)"/><use xlink:href="#h" transform="matrix(1,0,0,1,2625,294.3857026094738) translate(14.224999999999998 23.6)"/><use xlink:href="#X" transform="matrix(1,0,0,1,2719.110463571317,294.3857026094738) translate(5 26.933333333333334)"/><path d="M4100 2.73h320v450h-320z" fill="#fff"/><path d="M4100 92.73v46h320v-46M4100 182.73v46h320v-46M4100 272.73v46h320v-46M4100 362.73v46h320v-46" fill="#e6e6e6"/><path d="M4100 47.73v-45h320v45" fill="#00c2a8"/><path d="M4100 2.73h320v450h-320zM4100 47.73h320M4215.18 47.73v405" stroke="#333" stroke-width="3" fill="none"/><use xlink:href="#af" transform="matrix(1,0,0,1,4110,2.733015500689362) translate(5 29.433333333333334)"/><use xlink:href="#ag" transform="matrix(1,0,0,1,4110,2.733015500689362) translate(48.407407407407405 29.433333333333334)"/><use xlink:href="#ah" transform="matrix(1,0,0,1,4105,50.23301550068936) translate(8.099999999999994 23.6)"/><use xlink:href="#ai" transform="matrix(1,0,0,1,4220.179448778729,50.23301550068936) translate(5 26.933333333333334)"/><use xlink:href="#h" transform="matrix(1,0,0,1,4105,95.23301550068936) translate(24.724999999999998 23.6)"/><use xlink:href="#aj" transform="matrix(1,0,0,1,4220.179448778729,95.23301550068936) translate(5 26.933333333333334)"/><use xlink:href="#ah" transform="matrix(1,0,0,1,4105,140.23301550068936) translate(8.099999999999994 23.6)"/><use xlink:href="#ak" transform="matrix(1,0,0,1,4220.179448778729,140.23301550068936) translate(5 26.933333333333334)"/><use xlink:href="#ah" transform="matrix(1,0,0,1,4105,185.23301550068936) translate(8.099999999999994 23.6)"/><use xlink:href="#al" transform="matrix(1,0,0,1,4220.179448778729,185.23301550068936) translate(5 26.933333333333334)"/><use xlink:href="#ah" transform="matrix(1,0,0,1,4105,230.23301550068936) translate(8.099999999999994 23.6)"/><use xlink:href="#am" transform="matrix(1,0,0,1,4220.179448778729,230.23301550068936) translate(5 26.933333333333334)"/><use xlink:href="#h" transform="matrix(1,0,0,1,4105,275.23301550068936) translate(24.724999999999998 23.6)"/><use xlink:href="#an" transform="matrix(1,0,0,1,4220.179448778729,275.23301550068936) translate(5 26.933333333333334)"/><use xlink:href="#h" transform="matrix(1,0,0,1,4105,320.23301550068936) translate(24.724999999999998 23.6)"/><use xlink:href="#ao" transform="matrix(1,0,0,1,4220.179448778729,320.23301550068936) translate(5 26.933333333333334)"/><use xlink:href="#h" transform="matrix(1,0,0,1,4105,365.23301550068936) translate(24.724999999999998 23.6)"/><use xlink:href="#ap" transform="matrix(1,0,0,1,4220.179448778729,365.23301550068936) translate(5 26.933333333333334)"/><use xlink:href="#h" transform="matrix(1,0,0,1,4105,410.23301550068936) translate(24.724999999999998 23.6)"/><use xlink:href="#aq" transform="matrix(1,0,0,1,4220.179448778729,410.23301550068936) translate(5 26.933333333333334)"/><path d="M3622.5 665.35h85.5a12 12 0 0 0 12-12V262.37a12 12 0 0 1 12-12h331.05" stroke="#000" stroke-width="10" fill="none"/><path d="M3622.5 675.35v-20M3602.5 665.35h20" stroke="#000" stroke-width="10" fill="#fff"/><path d="M4082.32 250.37l-14.27 4.64v-9.26z" stroke="#000" stroke-width="10"/><use xlink:href="#ar" transform="matrix(1,0,0,1,3748.1922087941102,204.40461416761968) translate(0.0049999999999954525 24.888888888888893)"/><use xlink:href="#as" transform="matrix(1,0,0,1,3748.1922087941102,204.40461416761968) translate(110.44944444444445 24.888888888888893)"/><use xlink:href="#at" transform="matrix(1,0,0,1,3748.1922087941102,204.40461416761968) translate(170.94327160493827 24.888888888888893)"/><path d="M4100 1121.68a8 8 0 0 1 8-8h304a8 8 0 0 1 8 8v74a8 8 0 0 1-8 8h-304a8 8 0 0 1-8-8z" fill="none"/><use xlink:href="#au" transform="matrix(1,0,0,1,4100,1113.6758667179488) translate(7.703703703703695 55.66666666666667)"/><use xlink:href="#av" transform="matrix(1,0,0,1,4100,1113.6758667179488) translate(75.7037037037037 55.66666666666667)"/><path d="M3223 561.63h5.75a12 12 0 0 1 12 12v559.63a12 12 0 0 0 12 12h6.34" stroke="#000" fill="none"/><path d="M3223 571.63v-20M3203 561.63h20" stroke="#000" fill="#fff"/><path d="M3278.28 1155.26l-20-10 20-10" stroke="#000" fill="#fff" fill-opacity="0"/><path d="M3278.28 1145.26h-20" stroke="#000" fill="#fff"/><path d="M2920 1016.3a9.25 9.25 0 0 0-9.25 9.25v190.65a9.84 9.84 0 0 1-9.84 9.84" stroke="#000" fill="none"/><path d="M2920 1006.3v20M2940 1016.3h-20" stroke="#000" fill="#fff"/><path d="M2881.72 1216.04l20 10-20 10" stroke="#000" fill="#fff" fill-opacity="0"/><path d="M2881.72 1226.04h20" stroke="#000" fill="#fff"/><path d="M2920 1016.3a9.25 9.25 0 0 1-9.25-9.25V188.7a9.84 9.84 0 0 0-9.84-9.83" stroke="#000" fill="none"/><path d="M2920 1006.3v20M2940 1016.3h-20" stroke="#000" fill="#fff"/><path d="M2881.72 168.87l20 10-20 10" stroke="#000" fill="#fff" fill-opacity="0"/><path d="M2881.72 178.87h20" stroke="#000" fill="#fff"/><path d="M3223 561.63h5.75a12 12 0 0 0 12-12V168.1a12 12 0 0 1 12-12h6.34" stroke="#000" fill="none"/><path d="M3223 571.63v-20M3203 561.63h20" stroke="#000" fill="#fff"/><path d="M3278.28 166.1l-20-10 20-10" stroke="#000" fill="#fff" fill-opacity="0"/><path d="M3278.28 156.1h-20" stroke="#000" fill="#fff"/><path d="M3607.5 665.35H3708a12 12 0 0 1 12 12v469.33a12 12 0 0 0 12 12h279.05" stroke="#000" stroke-width="10" fill="none"/><path d="M3607.63 670.33h-5.13v-9.95h5.13z" stroke="#000" stroke-width=".05"/><path d="M4030.32 1158.68l-14.27 4.63v-9.26z" stroke="#000" stroke-width="10"/><defs><path d="M275 0h-61l-44-196L126 0H64L0-248h53L97-49l45-199h58l43 199 44-199h52" id="aw"/><path d="M133-34C117-15 103 5 69 4 32 3 11-16 11-54c-1-60 55-63 116-61 1-26-3-47-28-47-18 1-26 9-28 27l-52-2c7-38 36-58 82-57s74 22 75 68l1 82c-1 14 12 18 25 15v27c-30 8-71 5-69-32zm-48 3c29 0 43-24 42-57-32 0-66-3-65 30 0 17 8 27 23 27" id="ax"/><path d="M135-150c-39-12-60 13-60 57V0H25l-1-190h47c2 13-1 29 3 40 6-28 27-53 61-41v41" id="ay"/><path d="M185-48c-13 30-37 53-82 52C43 2 14-33 14-96s30-98 90-98c62 0 83 45 84 108H66c0 31 8 55 39 56 18 0 30-7 34-22zm-45-69c5-46-57-63-70-21-2 6-4 13-4 21h74" id="az"/><path d="M114-157C55-157 80-60 75 0H25v-261h50l-1 109c12-26 28-41 61-42 86-1 58 113 63 194h-50c-7-57 23-157-34-157" id="aA"/><path d="M110-194c64 0 96 36 96 99 0 64-35 99-97 99-61 0-95-36-95-99 0-62 34-99 96-99zm-1 164c35 0 45-28 45-65 0-40-10-65-43-65-34 0-45 26-45 65 0 36 10 65 43 65" id="aB"/><path d="M85 4C-2 5 27-109 22-190h50c7 57-23 150 33 157 60-5 35-97 40-157h50l1 190h-47c-2-12 1-28-3-38-12 25-28 42-61 42" id="aC"/><path d="M137-138c1-29-70-34-71-4 15 46 118 7 119 86 1 83-164 76-172 9l43-7c4 19 20 25 44 25 33 8 57-30 24-41C81-84 22-81 20-136c-2-80 154-74 161-7" id="aD"/><g id="a"><use transform="matrix(0.1111111111111111,0,0,0.1111111111111111,0,0)" xlink:href="#aw"/><use transform="matrix(0.1111111111111111,0,0,0.1111111111111111,36.22222222222222,0)" xlink:href="#ax"/><use transform="matrix(0.1111111111111111,0,0,0.1111111111111111,58.44444444444444,0)" xlink:href="#ay"/><use transform="matrix(0.1111111111111111,0,0,0.1111111111111111,74,0)" xlink:href="#az"/><use transform="matrix(0.1111111111111111,0,0,0.1111111111111111,96.22222222222223,0)" xlink:href="#aA"/><use transform="matrix(0.1111111111111111,0,0,0.1111111111111111,120.55555555555554,0)" xlink:href="#aB"/><use transform="matrix(0.1111111111111111,0,0,0.1111111111111111,144.88888888888889,0)" xlink:href="#aC"/><use transform="matrix(0.1111111111111111,0,0,0.1111111111111111,169.22222222222223,0)" xlink:href="#aD"/><use transform="matrix(0.1111111111111111,0,0,0.1111111111111111,191.44444444444446,0)" xlink:href="#az"/></g><path d="M169-182c-1-43-94-46-97-3 18 66 151 10 154 114 3 95-165 93-204 36-6-8-10-19-12-30l50-8c3 46 112 56 116 5-17-69-150-10-154-114-4-87 153-88 188-35 5 8 8 18 10 28" id="aE"/><path d="M115-3C79 11 28 4 28-45v-112H4v-33h27l15-45h31v45h36v33H77v99c-1 23 16 31 38 25v30" id="aF"/><path d="M195-6C206 82 75 100 31 46c-4-6-6-13-8-21l49-6c3 16 16 24 34 25 40 0 42-37 40-79-11 22-30 35-61 35-53 0-70-43-70-97 0-56 18-96 73-97 30 0 46 14 59 34l2-30h47zm-90-29c32 0 41-27 41-63 0-35-9-62-40-62-32 0-39 29-40 63 0 36 9 62 39 62" id="aG"/><path d="M25-224v-37h50v37H25zM25 0v-190h50V0H25" id="aH"/><path d="M135-194c87-1 58 113 63 194h-50c-7-57 23-157-34-157-59 0-34 97-39 157H25l-1-190h47c2 12-1 28 3 38 12-26 28-41 61-42" id="aI"/><g id="b"><use transform="matrix(0.1111111111111111,0,0,0.1111111111111111,0,0)" xlink:href="#aE"/><use transform="matrix(0.1111111111111111,0,0,0.1111111111111111,26.666666666666664,0)" xlink:href="#aF"/><use transform="matrix(0.1111111111111111,0,0,0.1111111111111111,39.888888888888886,0)" xlink:href="#ax"/><use transform="matrix(0.1111111111111111,0,0,0.1111111111111111,62.11111111111111,0)" xlink:href="#aG"/><use transform="matrix(0.1111111111111111,0,0,0.1111111111111111,86.44444444444444,0)" xlink:href="#aH"/><use transform="matrix(0.1111111111111111,0,0,0.1111111111111111,97.55555555555556,0)" xlink:href="#aI"/><use transform="matrix(0.1111111111111111,0,0,0.1111111111111111,121.88888888888889,0)" xlink:href="#aG"/></g><path fill="#fff" d="M30-248c87 1 191-15 191 75 0 78-77 80-158 76V0H30v-248zm33 125c57 0 124 11 124-50 0-59-68-47-124-48v98" id="aJ"/><path fill="#fff" d="M141-36C126-15 110 5 73 4 37 3 15-17 15-53c-1-64 63-63 125-63 3-35-9-54-41-54-24 1-41 7-42 31l-33-3c5-37 33-52 76-52 45 0 72 20 72 64v82c-1 20 7 32 28 27v20c-31 9-61-2-59-35zM48-53c0 20 12 33 32 33 41-3 63-29 60-74-43 2-92-5-92 41" id="aK"/><path fill="#fff" d="M59-47c-2 24 18 29 38 22v24C64 9 27 4 27-40v-127H5v-23h24l9-43h21v43h35v23H59v120" id="aL"/><path fill="#fff" d="M24-231v-30h32v30H24zM24 0v-190h32V0H24" id="aM"/><path fill="#fff" d="M100-194c63 0 86 42 84 106H49c0 40 14 67 53 68 26 1 43-12 49-29l28 8c-11 28-37 45-77 45C44 4 14-33 15-96c1-61 26-98 85-98zm52 81c6-60-76-77-97-28-3 7-6 17-6 28h103" id="aN"/><path fill="#fff" d="M117-194c89-4 53 116 60 194h-32v-121c0-31-8-49-39-48C34-167 62-67 57 0H25l-1-190h30c1 10-1 24 2 32 11-22 29-35 61-36" id="aO"/><path fill="#fff" d="M135-143c-3-34-86-38-87 0 15 53 115 12 119 90S17 21 10-45l28-5c4 36 97 45 98 0-10-56-113-15-118-90-4-57 82-63 122-42 12 7 21 19 24 35" id="aP"/><g id="c"><use transform="matrix(0.07407407407407407,0,0,0.07407407407407407,0,0)" xlink:href="#aJ"/><use transform="matrix(0.07407407407407407,0,0,0.07407407407407407,17.77777777777778,0)" xlink:href="#aK"/><use transform="matrix(0.07407407407407407,0,0,0.07407407407407407,32.592592592592595,0)" xlink:href="#aL"/><use transform="matrix(0.07407407407407407,0,0,0.07407407407407407,40,0)" xlink:href="#aM"/><use transform="matrix(0.07407407407407407,0,0,0.07407407407407407,45.85185185185185,0)" xlink:href="#aN"/><use transform="matrix(0.07407407407407407,0,0,0.07407407407407407,60.66666666666666,0)" xlink:href="#aO"/><use transform="matrix(0.07407407407407407,0,0,0.07407407407407407,75.48148148148147,0)" xlink:href="#aL"/><use transform="matrix(0.07407407407407407,0,0,0.07407407407407407,82.88888888888887,0)" xlink:href="#aP"/></g><path d="M30-248c87 1 191-15 191 75 0 78-77 80-158 76V0H30v-248zm33 125c57 0 124 11 124-50 0-59-68-47-124-48v98" id="aQ"/><path d="M194 0L95-120 63-95V0H30v-248h33v124l119-124h40L117-140 236 0h-42" id="aR"/><path d="M30 0v-248h187v28H63v79h144v27H63v87h162V0H30" id="aS"/><path d="M137-103V0h-34v-103L8-248h37l75 118 75-118h37" id="aT"/><g id="d"><use transform="matrix(0.05,0,0,0.05,0,0)" xlink:href="#aQ"/><use transform="matrix(0.05,0,0,0.05,12,0)" xlink:href="#aR"/><use transform="matrix(0.05,0,0,0.05,24,0)" xlink:href="#aS"/><use transform="matrix(0.05,0,0,0.05,36,0)" xlink:href="#aT"/></g><path fill="#333" d="M115-194c55 1 70 41 70 98S169 2 115 4C84 4 66-9 55-30l1 105H24l-1-265h31l2 30c10-21 28-34 59-34zm-8 174c40 0 45-34 45-75s-6-73-45-74c-42 0-51 32-51 76 0 43 10 73 51 73" id="aU"/><path fill="#333" d="M141-36C126-15 110 5 73 4 37 3 15-17 15-53c-1-64 63-63 125-63 3-35-9-54-41-54-24 1-41 7-42 31l-33-3c5-37 33-52 76-52 45 0 72 20 72 64v82c-1 20 7 32 28 27v20c-31 9-61-2-59-35zM48-53c0 20 12 33 32 33 41-3 63-29 60-74-43 2-92-5-92 41" id="aV"/><path fill="#333" d="M59-47c-2 24 18 29 38 22v24C64 9 27 4 27-40v-127H5v-23h24l9-43h21v43h35v23H59v120" id="aW"/><path fill="#333" d="M24-231v-30h32v30H24zM24 0v-190h32V0H24" id="aX"/><path fill="#333" d="M100-194c63 0 86 42 84 106H49c0 40 14 67 53 68 26 1 43-12 49-29l28 8c-11 28-37 45-77 45C44 4 14-33 15-96c1-61 26-98 85-98zm52 81c6-60-76-77-97-28-3 7-6 17-6 28h103" id="aY"/><path fill="#333" d="M117-194c89-4 53 116 60 194h-32v-121c0-31-8-49-39-48C34-167 62-67 57 0H25l-1-190h30c1 10-1 24 2 32 11-22 29-35 61-36" id="aZ"/><path fill="#333" d="M-5 72V49h209v23H-5" id="ba"/><path fill="#333" d="M85-194c31 0 48 13 60 33l-1-100h32l1 261h-30c-2-10 0-23-3-31C134-8 116 4 85 4 32 4 16-35 15-94c0-66 23-100 70-100zm9 24c-40 0-46 34-46 75 0 40 6 74 45 74 42 0 51-32 51-76 0-42-9-74-50-73" id="bb"/><g id="e"><use transform="matrix(0.07407407407407407,0,0,0.07407407407407407,0,0)" xlink:href="#aU"/><use transform="matrix(0.07407407407407407,0,0,0.07407407407407407,14.814814814814813,0)" xlink:href="#aV"/><use transform="matrix(0.07407407407407407,0,0,0.07407407407407407,29.629629629629626,0)" xlink:href="#aW"/><use transform="matrix(0.07407407407407407,0,0,0.07407407407407407,37.03703703703703,0)" xlink:href="#aX"/><use transform="matrix(0.07407407407407407,0,0,0.07407407407407407,42.888888888888886,0)" xlink:href="#aY"/><use transform="matrix(0.07407407407407407,0,0,0.07407407407407407,57.703703703703695,0)" xlink:href="#aZ"/><use transform="matrix(0.07407407407407407,0,0,0.07407407407407407,72.5185185185185,0)" xlink:href="#aW"/><use transform="matrix(0.07407407407407407,0,0,0.07407407407407407,79.92592592592591,0)" xlink:href="#ba"/><use transform="matrix(0.07407407407407407,0,0,0.07407407407407407,94.74074074074072,0)" xlink:href="#aX"/><use transform="matrix(0.07407407407407407,0,0,0.07407407407407407,100.59259259259257,0)" xlink:href="#bb"/></g><path d="M30-248c118-7 216 8 213 122C240-48 200 0 122 0H30v-248zM63-27c89 8 146-16 146-99s-60-101-146-95v194" id="bc"/><path d="M205 0l-28-72H64L36 0H1l101-248h38L239 0h-34zm-38-99l-47-123c-12 45-31 82-46 123h93" id="bd"/><path d="M127-220V0H93v-220H8v-28h204v28h-85" id="be"/><g id="f"><use transform="matrix(0.05,0,0,0.05,0,0)" xlink:href="#bc"/><use transform="matrix(0.05,0,0,0.05,12.950000000000001,0)" xlink:href="#bd"/><use transform="matrix(0.05,0,0,0.05,23.6,0)" xlink:href="#be"/><use transform="matrix(0.05,0,0,0.05,34.550000000000004,0)" xlink:href="#aS"/></g><path fill="#333" d="M100-194c62-1 85 37 85 99 1 63-27 99-86 99S16-35 15-95c0-66 28-99 85-99zM99-20c44 1 53-31 53-75 0-43-8-75-51-75s-53 32-53 75 10 74 51 75" id="bf"/><path fill="#333" d="M115-194c53 0 69 39 70 98 0 66-23 100-70 100C84 3 66-7 56-30L54 0H23l1-261h32v101c10-23 28-34 59-34zm-8 174c40 0 45-34 45-75 0-40-5-75-45-74-42 0-51 32-51 76 0 43 10 73 51 73" id="bg"/><g id="g"><use transform="matrix(0.07407407407407407,0,0,0.07407407407407407,0,0)" xlink:href="#bb"/><use transform="matrix(0.07407407407407407,0,0,0.07407407407407407,14.814814814814813,0)" xlink:href="#bf"/><use transform="matrix(0.07407407407407407,0,0,0.07407407407407407,29.629629629629626,0)" xlink:href="#bg"/></g><path d="M63-220v92h138v28H63V0H30v-248h175v28H63" id="bh"/><path d="M30 0v-248h33v221h125V0H30" id="bi"/><path d="M140-251c81 0 123 46 123 126C263-46 219 4 140 4 59 4 17-45 17-125s42-126 123-126zm0 227c63 0 89-41 89-101s-29-99-89-99c-61 0-89 39-89 99S79-25 140-24" id="bj"/><g id="h"><use transform="matrix(0.05,0,0,0.05,0,0)" xlink:href="#bh"/><use transform="matrix(0.05,0,0,0.05,10.950000000000001,0)" xlink:href="#bi"/><use transform="matrix(0.05,0,0,0.05,20.950000000000003,0)" xlink:href="#bj"/><use transform="matrix(0.05,0,0,0.05,34.95,0)" xlink:href="#bd"/><use transform="matrix(0.05,0,0,0.05,45.6,0)" xlink:href="#be"/></g><path fill="#333" d="M177-190C167-65 218 103 67 71c-23-6-38-20-44-43l32-5c15 47 100 32 89-28v-30C133-14 115 1 83 1 29 1 15-40 15-95c0-56 16-97 71-98 29-1 48 16 59 35 1-10 0-23 2-32h30zM94-22c36 0 50-32 50-73 0-42-14-75-50-75-39 0-46 34-46 75s6 73 46 73" id="bk"/><g id="i"><use transform="matrix(0.07407407407407407,0,0,0.07407407407407407,0,0)" xlink:href="#aV"/><use transform="matrix(0.07407407407407407,0,0,0.07407407407407407,14.814814814814813,0)" xlink:href="#bk"/><use transform="matrix(0.07407407407407407,0,0,0.07407407407407407,29.629629629629626,0)" xlink:href="#aY"/></g><path d="M190 0L58-211 59 0H30v-248h39L202-35l-2-213h31V0h-41" id="bl"/><path d="M232-93c-1 65-40 97-104 97C67 4 28-28 28-90v-158h33c8 89-33 224 67 224 102 0 64-133 71-224h33v155" id="bm"/><path d="M240 0l2-218c-23 76-54 145-80 218h-23L58-218 59 0H30v-248h44l77 211c21-75 51-140 76-211h43V0h-30" id="bn"/><g id="j"><use transform="matrix(0.05,0,0,0.05,0,0)" xlink:href="#aS"/><use transform="matrix(0.05,0,0,0.05,12,0)" xlink:href="#bl"/><use transform="matrix(0.05,0,0,0.05,24.950000000000003,0)" xlink:href="#bm"/><use transform="matrix(0.05,0,0,0.05,37.900000000000006,0)" xlink:href="#bn"/></g><path fill="#333" d="M114-163C36-179 61-72 57 0H25l-1-190h30c1 12-1 29 2 39 6-27 23-49 58-41v29" id="bo"/><g id="k"><use transform="matrix(0.07407407407407407,0,0,0.07407407407407407,0,0)" xlink:href="#bk"/><use transform="matrix(0.07407407407407407,0,0,0.07407407407407407,14.814814814814813,0)" xlink:href="#aY"/><use transform="matrix(0.07407407407407407,0,0,0.07407407407407407,29.629629629629626,0)" xlink:href="#aZ"/><use transform="matrix(0.07407407407407407,0,0,0.07407407407407407,44.44444444444444,0)" xlink:href="#bb"/><use transform="matrix(0.07407407407407407,0,0,0.07407407407407407,59.25925925925925,0)" xlink:href="#aY"/><use transform="matrix(0.07407407407407407,0,0,0.07407407407407407,74.07407407407406,0)" xlink:href="#bo"/></g><path d="M185-189c-5-48-123-54-124 2 14 75 158 14 163 119 3 78-121 87-175 55-17-10-28-26-33-46l33-7c5 56 141 63 141-1 0-78-155-14-162-118-5-82 145-84 179-34 5 7 8 16 11 25" id="bp"/><path d="M233-177c-1 41-23 64-60 70L243 0h-38l-65-103H63V0H30v-248c88 3 205-21 203 71zM63-129c60-2 137 13 137-47 0-61-80-42-137-45v92" id="bq"/><path d="M33 0v-248h34V0H33" id="br"/><path d="M143 4C61 4 22-44 18-125c-5-107 100-154 193-111 17 8 29 25 37 43l-32 9c-13-25-37-40-76-40-61 0-88 39-88 99 0 61 29 100 91 101 35 0 62-11 79-27v-45h-74v-28h105v86C228-13 192 4 143 4" id="bs"/><g id="l"><use transform="matrix(0.05,0,0,0.05,0,0)" xlink:href="#bp"/><use transform="matrix(0.05,0,0,0.05,12,0)" xlink:href="#be"/><use transform="matrix(0.05,0,0,0.05,22.950000000000003,0)" xlink:href="#bq"/><use transform="matrix(0.05,0,0,0.05,35.900000000000006,0)" xlink:href="#br"/><use transform="matrix(0.05,0,0,0.05,40.900000000000006,0)" xlink:href="#bl"/><use transform="matrix(0.05,0,0,0.05,53.85,0)" xlink:href="#bs"/></g><path fill="#333" d="M210-169c-67 3-38 105-44 169h-31v-121c0-29-5-50-35-48C34-165 62-65 56 0H25l-1-190h30c1 10-1 24 2 32 10-44 99-50 107 0 11-21 27-35 58-36 85-2 47 119 55 194h-31v-121c0-29-5-49-35-48" id="bt"/><path fill="#333" d="M135-143c-3-34-86-38-87 0 15 53 115 12 119 90S17 21 10-45l28-5c4 36 97 45 98 0-10-56-113-15-118-90-4-57 82-63 122-42 12 7 21 19 24 35" id="bu"/><path fill="#333" d="M179-190L93 31C79 59 56 82 12 73V49c39 6 53-20 64-50L1-190h34L92-34l54-156h33" id="bv"/><g id="m"><use transform="matrix(0.07407407407407407,0,0,0.07407407407407407,0,0)" xlink:href="#bt"/><use transform="matrix(0.07407407407407407,0,0,0.07407407407407407,22.148148148148145,0)" xlink:href="#bu"/><use transform="matrix(0.07407407407407407,0,0,0.07407407407407407,35.48148148148148,0)" xlink:href="#ba"/><use transform="matrix(0.07407407407407407,0,0,0.07407407407407407,50.29629629629629,0)" xlink:href="#aW"/><use transform="matrix(0.07407407407407407,0,0,0.07407407407407407,57.703703703703695,0)" xlink:href="#bv"/><use transform="matrix(0.07407407407407407,0,0,0.07407407407407407,71.03703703703702,0)" xlink:href="#aU"/><use transform="matrix(0.07407407407407407,0,0,0.07407407407407407,85.85185185185183,0)" xlink:href="#aY"/></g><path d="M240-174c0 40-23 61-54 70L253 0h-59l-57-94H76V0H24v-248c93 4 217-23 216 74zM76-134c48-2 112 12 112-38 0-48-66-32-112-35v73" id="bw"/><path d="M199 0l-22-63H83L61 0H9l90-248h61L250 0h-51zm-33-102l-36-108c-10 38-24 72-36 108h72" id="bx"/><g id="n"><use transform="matrix(0.1111111111111111,0,0,0.1111111111111111,0,0)" xlink:href="#bw"/><use transform="matrix(0.1111111111111111,0,0,0.1111111111111111,28.777777777777775,0)" xlink:href="#bx"/><use transform="matrix(0.1111111111111111,0,0,0.1111111111111111,55.33333333333333,0)" xlink:href="#aw"/></g><path d="M190-63c-7 42-38 67-86 67-59 0-84-38-90-98-12-110 154-137 174-36l-49 2c-2-19-15-32-35-32-30 0-35 28-38 64-6 74 65 87 74 30" id="by"/><g id="o"><use transform="matrix(0.1111111111111111,0,0,0.1111111111111111,0,0)" xlink:href="#aE"/><use transform="matrix(0.1111111111111111,0,0,0.1111111111111111,26.666666666666664,0)" xlink:href="#aB"/><use transform="matrix(0.1111111111111111,0,0,0.1111111111111111,51,0)" xlink:href="#aC"/><use transform="matrix(0.1111111111111111,0,0,0.1111111111111111,75.33333333333333,0)" xlink:href="#ay"/><use transform="matrix(0.1111111111111111,0,0,0.1111111111111111,90.88888888888889,0)" xlink:href="#by"/><use transform="matrix(0.1111111111111111,0,0,0.1111111111111111,113.11111111111111,0)" xlink:href="#az"/></g><path d="M24-248c120-7 223 5 221 122C244-46 201 0 124 0H24v-248zM76-40c74 7 117-18 117-86 0-67-45-88-117-82v168" id="bz"/><g id="p"><use transform="matrix(0.1111111111111111,0,0,0.1111111111111111,0,0)" xlink:href="#bz"/><use transform="matrix(0.1111111111111111,0,0,0.1111111111111111,28.777777777777775,0)" xlink:href="#ax"/><use transform="matrix(0.1111111111111111,0,0,0.1111111111111111,51,0)" xlink:href="#aF"/><use transform="matrix(0.1111111111111111,0,0,0.1111111111111111,64.22222222222223,0)" xlink:href="#ax"/></g><path d="M100-194c63 0 86 42 84 106H49c0 40 14 67 53 68 26 1 43-12 49-29l28 8c-11 28-37 45-77 45C44 4 14-33 15-96c1-61 26-98 85-98zm52 81c6-60-76-77-97-28-3 7-6 17-6 28h103" id="bA"/><path d="M179-190L93 31C79 59 56 82 12 73V49c39 6 53-20 64-50L1-190h34L92-34l54-156h33" id="bB"/><g id="q"><use transform="matrix(0.1111111111111111,0,0,0.1111111111111111,0,0)" xlink:href="#aQ"/><use transform="matrix(0.1111111111111111,0,0,0.1111111111111111,26.666666666666664,0)" xlink:href="#aR"/><use transform="matrix(0.1111111111111111,0,0,0.1111111111111111,53.33333333333333,0)" xlink:href="#bA"/><use transform="matrix(0.1111111111111111,0,0,0.1111111111111111,75.55555555555554,0)" xlink:href="#bB"/></g><path d="M115-194c55 1 70 41 70 98S169 2 115 4C84 4 66-9 55-30l1 105H24l-1-265h31l2 30c10-21 28-34 59-34zm-8 174c40 0 45-34 45-75s-6-73-45-74c-42 0-51 32-51 76 0 43 10 73 51 73" id="bC"/><path d="M141-36C126-15 110 5 73 4 37 3 15-17 15-53c-1-64 63-63 125-63 3-35-9-54-41-54-24 1-41 7-42 31l-33-3c5-37 33-52 76-52 45 0 72 20 72 64v82c-1 20 7 32 28 27v20c-31 9-61-2-59-35zM48-53c0 20 12 33 32 33 41-3 63-29 60-74-43 2-92-5-92 41" id="bD"/><path d="M59-47c-2 24 18 29 38 22v24C64 9 27 4 27-40v-127H5v-23h24l9-43h21v43h35v23H59v120" id="bE"/><path d="M24-231v-30h32v30H24zM24 0v-190h32V0H24" id="bF"/><path d="M117-194c89-4 53 116 60 194h-32v-121c0-31-8-49-39-48C34-167 62-67 57 0H25l-1-190h30c1 10-1 24 2 32 11-22 29-35 61-36" id="bG"/><path d="M-5 72V49h209v23H-5" id="bH"/><path d="M85-194c31 0 48 13 60 33l-1-100h32l1 261h-30c-2-10 0-23-3-31C134-8 116 4 85 4 32 4 16-35 15-94c0-66 23-100 70-100zm9 24c-40 0-46 34-46 75 0 40 6 74 45 74 42 0 51-32 51-76 0-42-9-74-50-73" id="bI"/><g id="r"><use transform="matrix(0.1111111111111111,0,0,0.1111111111111111,0,0)" xlink:href="#bC"/><use transform="matrix(0.1111111111111111,0,0,0.1111111111111111,22.22222222222222,0)" xlink:href="#bD"/><use transform="matrix(0.1111111111111111,0,0,0.1111111111111111,44.44444444444444,0)" xlink:href="#bE"/><use transform="matrix(0.1111111111111111,0,0,0.1111111111111111,55.55555555555556,0)" xlink:href="#bF"/><use transform="matrix(0.1111111111111111,0,0,0.1111111111111111,64.33333333333333,0)" xlink:href="#bA"/><use transform="matrix(0.1111111111111111,0,0,0.1111111111111111,86.55555555555554,0)" xlink:href="#bG"/><use transform="matrix(0.1111111111111111,0,0,0.1111111111111111,108.77777777777777,0)" xlink:href="#bE"/><use transform="matrix(0.1111111111111111,0,0,0.1111111111111111,119.88888888888889,0)" xlink:href="#bH"/><use transform="matrix(0.1111111111111111,0,0,0.1111111111111111,142.11111111111111,0)" xlink:href="#bF"/><use transform="matrix(0.1111111111111111,0,0,0.1111111111111111,150.88888888888889,0)" xlink:href="#bI"/></g><g id="s"><use transform="matrix(0.1111111111111111,0,0,0.1111111111111111,0,0)" xlink:href="#bc"/><use transform="matrix(0.1111111111111111,0,0,0.1111111111111111,28.777777777777775,0)" xlink:href="#bd"/><use transform="matrix(0.1111111111111111,0,0,0.1111111111111111,52.44444444444444,0)" xlink:href="#be"/><use transform="matrix(0.1111111111111111,0,0,0.1111111111111111,76.77777777777777,0)" xlink:href="#aS"/></g><path d="M100-194c62-1 85 37 85 99 1 63-27 99-86 99S16-35 15-95c0-66 28-99 85-99zM99-20c44 1 53-31 53-75 0-43-8-75-51-75s-53 32-53 75 10 74 51 75" id="bJ"/><path d="M115-194c53 0 69 39 70 98 0 66-23 100-70 100C84 3 66-7 56-30L54 0H23l1-261h32v101c10-23 28-34 59-34zm-8 174c40 0 45-34 45-75 0-40-5-75-45-74-42 0-51 32-51 76 0 43 10 73 51 73" id="bK"/><g id="t"><use transform="matrix(0.1111111111111111,0,0,0.1111111111111111,0,0)" xlink:href="#bI"/><use transform="matrix(0.1111111111111111,0,0,0.1111111111111111,22.22222222222222,0)" xlink:href="#bJ"/><use transform="matrix(0.1111111111111111,0,0,0.1111111111111111,44.44444444444444,0)" xlink:href="#bK"/></g><g id="u"><use transform="matrix(0.1111111111111111,0,0,0.1111111111111111,0,0)" xlink:href="#bh"/><use transform="matrix(0.1111111111111111,0,0,0.1111111111111111,24.333333333333332,0)" xlink:href="#bi"/><use transform="matrix(0.1111111111111111,0,0,0.1111111111111111,46.55555555555556,0)" xlink:href="#bj"/><use transform="matrix(0.1111111111111111,0,0,0.1111111111111111,77.66666666666667,0)" xlink:href="#bd"/><use transform="matrix(0.1111111111111111,0,0,0.1111111111111111,101.33333333333334,0)" xlink:href="#be"/></g><path d="M177-190C167-65 218 103 67 71c-23-6-38-20-44-43l32-5c15 47 100 32 89-28v-30C133-14 115 1 83 1 29 1 15-40 15-95c0-56 16-97 71-98 29-1 48 16 59 35 1-10 0-23 2-32h30zM94-22c36 0 50-32 50-73 0-42-14-75-50-75-39 0-46 34-46 75s6 73 46 73" id="bL"/><g id="v"><use transform="matrix(0.1111111111111111,0,0,0.1111111111111111,0,0)" xlink:href="#bD"/><use transform="matrix(0.1111111111111111,0,0,0.1111111111111111,22.22222222222222,0)" xlink:href="#bL"/><use transform="matrix(0.1111111111111111,0,0,0.1111111111111111,44.44444444444444,0)" xlink:href="#bA"/></g><g id="w"><use transform="matrix(0.1111111111111111,0,0,0.1111111111111111,0,0)" xlink:href="#aS"/><use transform="matrix(0.1111111111111111,0,0,0.1111111111111111,26.666666666666664,0)" xlink:href="#bl"/><use transform="matrix(0.1111111111111111,0,0,0.1111111111111111,55.44444444444444,0)" xlink:href="#bm"/><use transform="matrix(0.1111111111111111,0,0,0.1111111111111111,84.22222222222221,0)" xlink:href="#bn"/></g><path d="M114-163C36-179 61-72 57 0H25l-1-190h30c1 12-1 29 2 39 6-27 23-49 58-41v29" id="bM"/><g id="x"><use transform="matrix(0.1111111111111111,0,0,0.1111111111111111,0,0)" xlink:href="#bL"/><use transform="matrix(0.1111111111111111,0,0,0.1111111111111111,22.22222222222222,0)" xlink:href="#bA"/><use transform="matrix(0.1111111111111111,0,0,0.1111111111111111,44.44444444444444,0)" xlink:href="#bG"/><use transform="matrix(0.1111111111111111,0,0,0.1111111111111111,66.66666666666666,0)" xlink:href="#bI"/><use transform="matrix(0.1111111111111111,0,0,0.1111111111111111,88.88888888888889,0)" xlink:href="#bA"/><use transform="matrix(0.1111111111111111,0,0,0.1111111111111111,111.11111111111111,0)" xlink:href="#bM"/></g><g id="y"><use transform="matrix(0.1111111111111111,0,0,0.1111111111111111,0,0)" xlink:href="#bp"/><use transform="matrix(0.1111111111111111,0,0,0.1111111111111111,26.666666666666664,0)" xlink:href="#be"/><use transform="matrix(0.1111111111111111,0,0,0.1111111111111111,51,0)" xlink:href="#bq"/><use transform="matrix(0.1111111111111111,0,0,0.1111111111111111,79.77777777777777,0)" xlink:href="#br"/><use transform="matrix(0.1111111111111111,0,0,0.1111111111111111,90.88888888888889,0)" xlink:href="#bl"/><use transform="matrix(0.1111111111111111,0,0,0.1111111111111111,119.66666666666666,0)" xlink:href="#bs"/></g><path d="M135-143c-3-34-86-38-87 0 15 53 115 12 119 90S17 21 10-45l28-5c4 36 97 45 98 0-10-56-113-15-118-90-4-57 82-63 122-42 12 7 21 19 24 35" id="bN"/><g id="z"><use transform="matrix(0.1111111111111111,0,0,0.1111111111111111,0,0)" xlink:href="#bM"/><use transform="matrix(0.1111111111111111,0,0,0.1111111111111111,13.222222222222221,0)" xlink:href="#bA"/><use transform="matrix(0.1111111111111111,0,0,0.1111111111111111,35.44444444444444,0)" xlink:href="#bN"/><use transform="matrix(0.1111111111111111,0,0,0.1111111111111111,55.44444444444444,0)" xlink:href="#bC"/><use transform="matrix(0.1111111111111111,0,0,0.1111111111111111,77.66666666666666,0)" xlink:href="#bJ"/><use transform="matrix(0.1111111111111111,0,0,0.1111111111111111,99.88888888888889,0)" xlink:href="#bG"/><use transform="matrix(0.1111111111111111,0,0,0.1111111111111111,122.1111111111111,0)" xlink:href="#bI"/><use transform="matrix(0.1111111111111111,0,0,0.1111111111111111,144.33333333333334,0)" xlink:href="#bA"/><use transform="matrix(0.1111111111111111,0,0,0.1111111111111111,166.55555555555557,0)" xlink:href="#bM"/></g><path d="M210-169c-67 3-38 105-44 169h-31v-121c0-29-5-50-35-48C34-165 62-65 56 0H25l-1-190h30c1 10-1 24 2 32 10-44 99-50 107 0 11-21 27-35 58-36 85-2 47 119 55 194h-31v-121c0-29-5-49-35-48" id="bO"/><g id="A"><use transform="matrix(0.1111111111111111,0,0,0.1111111111111111,0,0)" xlink:href="#bO"/><use transform="matrix(0.1111111111111111,0,0,0.1111111111111111,33.22222222222222,0)" xlink:href="#bN"/><use transform="matrix(0.1111111111111111,0,0,0.1111111111111111,53.22222222222222,0)" xlink:href="#bH"/><use transform="matrix(0.1111111111111111,0,0,0.1111111111111111,75.44444444444444,0)" xlink:href="#bE"/><use transform="matrix(0.1111111111111111,0,0,0.1111111111111111,86.55555555555556,0)" xlink:href="#bB"/><use transform="matrix(0.1111111111111111,0,0,0.1111111111111111,106.55555555555556,0)" xlink:href="#bC"/><use transform="matrix(0.1111111111111111,0,0,0.1111111111111111,128.77777777777777,0)" xlink:href="#bA"/></g><g id="B"><use transform="matrix(0.1111111111111111,0,0,0.1111111111111111,0,0)" xlink:href="#bA"/><use transform="matrix(0.1111111111111111,0,0,0.1111111111111111,22.22222222222222,0)" xlink:href="#bI"/><use transform="matrix(0.1111111111111111,0,0,0.1111111111111111,44.44444444444444,0)" xlink:href="#bN"/><use transform="matrix(0.1111111111111111,0,0,0.1111111111111111,64.44444444444444,0)" xlink:href="#bN"/></g><path d="M24 0v-261h32V0H24" id="bP"/><g id="C"><use transform="matrix(0.1111111111111111,0,0,0.1111111111111111,0,0)" xlink:href="#bP"/><use transform="matrix(0.1111111111111111,0,0,0.1111111111111111,8.777777777777777,0)" xlink:href="#bA"/><use transform="matrix(0.1111111111111111,0,0,0.1111111111111111,31,0)" xlink:href="#bN"/><use transform="matrix(0.1111111111111111,0,0,0.1111111111111111,51,0)" xlink:href="#bF"/><use transform="matrix(0.1111111111111111,0,0,0.1111111111111111,59.77777777777777,0)" xlink:href="#bJ"/><use transform="matrix(0.1111111111111111,0,0,0.1111111111111111,82,0)" xlink:href="#bG"/></g><path d="M206 0h-36l-40-164L89 0H53L-1-190h32L70-26l43-164h34l41 164 42-164h31" id="bQ"/><g id="D"><use transform="matrix(0.1111111111111111,0,0,0.1111111111111111,0,0)" xlink:href="#bQ"/><use transform="matrix(0.1111111111111111,0,0,0.1111111111111111,28.777777777777775,0)" xlink:href="#bK"/></g><path d="M96-169c-40 0-48 33-48 73s9 75 48 75c24 0 41-14 43-38l32 2c-6 37-31 61-74 61-59 0-76-41-82-99-10-93 101-131 147-64 4 7 5 14 7 22l-32 3c-4-21-16-35-41-35" id="bR"/><g id="E"><use transform="matrix(0.1111111111111111,0,0,0.1111111111111111,0,0)" xlink:href="#bR"/><use transform="matrix(0.1111111111111111,0,0,0.1111111111111111,20,0)" xlink:href="#bJ"/><use transform="matrix(0.1111111111111111,0,0,0.1111111111111111,42.22222222222222,0)" xlink:href="#bL"/><use transform="matrix(0.1111111111111111,0,0,0.1111111111111111,64.44444444444444,0)" xlink:href="#bH"/><use transform="matrix(0.1111111111111111,0,0,0.1111111111111111,86.66666666666666,0)" xlink:href="#bO"/><use transform="matrix(0.1111111111111111,0,0,0.1111111111111111,119.88888888888889,0)" xlink:href="#bA"/><use transform="matrix(0.1111111111111111,0,0,0.1111111111111111,142.11111111111111,0)" xlink:href="#bO"/></g><path d="M33 0v-38h34V0H33" id="bS"/><g id="F"><use transform="matrix(0.1111111111111111,0,0,0.1111111111111111,0,0)" xlink:href="#bS"/><use transform="matrix(0.1111111111111111,0,0,0.1111111111111111,11.11111111111111,0)" xlink:href="#bS"/><use transform="matrix(0.1111111111111111,0,0,0.1111111111111111,22.22222222222222,0)" xlink:href="#bS"/></g><g id="G"><use transform="matrix(0.1111111111111111,0,0,0.1111111111111111,0,0)" xlink:href="#bS"/><use transform="matrix(0.1111111111111111,0,0,0.1111111111111111,11.11111111111111,0)" xlink:href="#bS"/><use transform="matrix(0.1111111111111111,0,0,0.1111111111111111,22.22222222222222,0)" xlink:href="#bS"/></g><path d="M220-157c-53 9-28 100-34 157h-49v-107c1-27-5-49-29-50C55-147 81-57 75 0H25l-1-190h47c2 12-1 28 3 38 10-53 101-56 108 0 13-22 24-43 59-42 82 1 51 116 57 194h-49v-107c-1-25-5-48-29-50" id="bT"/><g id="H"><use transform="matrix(0.06234567901234567,0,0,0.06234567901234567,0,0)" xlink:href="#bz"/><use transform="matrix(0.06234567901234567,0,0,0.06234567901234567,16.147530864197527,0)" xlink:href="#aH"/><use transform="matrix(0.06234567901234567,0,0,0.06234567901234567,22.382098765432094,0)" xlink:href="#ax"/><use transform="matrix(0.06234567901234567,0,0,0.06234567901234567,34.85123456790123,0)" xlink:href="#aG"/><use transform="matrix(0.06234567901234567,0,0,0.06234567901234567,48.50493827160493,0)" xlink:href="#ay"/><use transform="matrix(0.06234567901234567,0,0,0.06234567901234567,57.23333333333332,0)" xlink:href="#ax"/><use transform="matrix(0.06234567901234567,0,0,0.06234567901234567,69.70246913580246,0)" xlink:href="#bT"/></g><path d="M195 0l-88-114-31 24V0H24v-248h52v113l112-113h60L142-143 257 0h-62" id="bU"/><path d="M123 10C108 53 80 86 19 72V37c35 8 53-11 59-39L3-190h52l48 148c12-52 28-100 44-148h51" id="bV"/><g id="I"><use transform="matrix(0.06234567901234567,0,0,0.06234567901234567,0,0)" xlink:href="#bU"/><use transform="matrix(0.06234567901234567,0,0,0.06234567901234567,16.147530864197527,0)" xlink:href="#az"/><use transform="matrix(0.06234567901234567,0,0,0.06234567901234567,28.61666666666666,0)" xlink:href="#bV"/></g><g id="J"><use transform="matrix(0.05123456790123455,0,0,0.05123456790123455,0,0)" xlink:href="#bp"/><use transform="matrix(0.05123456790123455,0,0,0.05123456790123455,12.29629629629629,0)" xlink:href="#bE"/><use transform="matrix(0.05123456790123455,0,0,0.05123456790123455,17.419753086419746,0)" xlink:href="#bD"/><use transform="matrix(0.05123456790123455,0,0,0.05123456790123455,27.666666666666654,0)" xlink:href="#bL"/><use transform="matrix(0.05123456790123455,0,0,0.05123456790123455,37.91358024691357,0)" xlink:href="#bF"/><use transform="matrix(0.05123456790123455,0,0,0.05123456790123455,41.961111111111094,0)" xlink:href="#bG"/><use transform="matrix(0.05123456790123455,0,0,0.05123456790123455,52.208024691358005,0)" xlink:href="#bL"/></g><g id="K"><use transform="matrix(0.05123456790123455,0,0,0.05123456790123455,0,0)" xlink:href="#bc"/><use transform="matrix(0.05123456790123455,0,0,0.05123456790123455,13.269753086419747,0)" xlink:href="#bD"/><use transform="matrix(0.05123456790123455,0,0,0.05123456790123455,23.51666666666666,0)" xlink:href="#bE"/><use transform="matrix(0.05123456790123455,0,0,0.05123456790123455,28.64012345679011,0)" xlink:href="#bD"/></g><g id="L"><use transform="matrix(0.05123456790123456,0,0,0.05123456790123456,0,0)" xlink:href="#bq"/><use transform="matrix(0.05123456790123456,0,0,0.05123456790123456,13.269753086419751,0)" xlink:href="#bD"/><use transform="matrix(0.05123456790123456,0,0,0.05123456790123456,23.516666666666666,0)" xlink:href="#bQ"/></g><g id="M"><use transform="matrix(0.05123456790123456,0,0,0.05123456790123456,0,0)" xlink:href="#bc"/><use transform="matrix(0.05123456790123456,0,0,0.05123456790123456,13.269753086419751,0)" xlink:href="#bD"/><use transform="matrix(0.05123456790123456,0,0,0.05123456790123456,23.516666666666666,0)" xlink:href="#bE"/><use transform="matrix(0.05123456790123456,0,0,0.05123456790123456,28.64012345679012,0)" xlink:href="#bD"/></g><path d="M101-234c-31-9-42 10-38 44h38v23H63V0H32v-167H5v-23h27c-7-52 17-82 69-68v24" id="bW"/><g id="N"><use transform="matrix(0.04938271604938272,0,0,0.04938271604938272,0,0)" xlink:href="#be"/><use transform="matrix(0.04938271604938272,0,0,0.04938271604938272,10.17283950617284,0)" xlink:href="#bM"/><use transform="matrix(0.04938271604938272,0,0,0.04938271604938272,16.049382716049383,0)" xlink:href="#bD"/><use transform="matrix(0.04938271604938272,0,0,0.04938271604938272,25.925925925925927,0)" xlink:href="#bG"/><use transform="matrix(0.04938271604938272,0,0,0.04938271604938272,35.80246913580247,0)" xlink:href="#bN"/><use transform="matrix(0.04938271604938272,0,0,0.04938271604938272,44.691358024691354,0)" xlink:href="#bW"/><use transform="matrix(0.04938271604938272,0,0,0.04938271604938272,49.629629629629626,0)" xlink:href="#bJ"/><use transform="matrix(0.04938271604938272,0,0,0.04938271604938272,59.50617283950616,0)" xlink:href="#bM"/><use transform="matrix(0.04938271604938272,0,0,0.04938271604938272,65.38271604938271,0)" xlink:href="#bO"/><use transform="matrix(0.04938271604938272,0,0,0.04938271604938272,80.14814814814814,0)" xlink:href="#bA"/><use transform="matrix(0.04938271604938272,0,0,0.04938271604938272,90.02469135802468,0)" xlink:href="#bI"/></g><g id="O"><use transform="matrix(0.04938271604938272,0,0,0.04938271604938272,0,0)" xlink:href="#bc"/><use transform="matrix(0.04938271604938272,0,0,0.04938271604938272,12.790123456790125,0)" xlink:href="#bD"/><use transform="matrix(0.04938271604938272,0,0,0.04938271604938272,22.66666666666667,0)" xlink:href="#bE"/><use transform="matrix(0.04938271604938272,0,0,0.04938271604938272,27.604938271604947,0)" xlink:href="#bD"/></g><path d="M106-169C34-169 62-67 57 0H25v-261h32l-1 103c12-21 28-36 61-36 89 0 53 116 60 194h-32v-121c2-32-8-49-39-48" id="bX"/><g id="P"><use transform="matrix(0.04938271604938272,0,0,0.04938271604938272,0,0)" xlink:href="#bn"/><use transform="matrix(0.04938271604938272,0,0,0.04938271604938272,14.765432098765434,0)" xlink:href="#bD"/><use transform="matrix(0.04938271604938272,0,0,0.04938271604938272,24.641975308641978,0)" xlink:href="#bR"/><use transform="matrix(0.04938271604938272,0,0,0.04938271604938272,33.53086419753087,0)" xlink:href="#bX"/><use transform="matrix(0.04938271604938272,0,0,0.04938271604938272,43.40740740740741,0)" xlink:href="#bF"/><use transform="matrix(0.04938271604938272,0,0,0.04938271604938272,47.308641975308646,0)" xlink:href="#bG"/><use transform="matrix(0.04938271604938272,0,0,0.04938271604938272,57.18518518518519,0)" xlink:href="#bA"/></g><g id="Q"><use transform="matrix(0.04938271604938272,0,0,0.04938271604938272,0,0)" xlink:href="#bi"/><use transform="matrix(0.04938271604938272,0,0,0.04938271604938272,9.876543209876544,0)" xlink:href="#bA"/><use transform="matrix(0.04938271604938272,0,0,0.04938271604938272,19.75308641975309,0)" xlink:href="#bD"/><use transform="matrix(0.04938271604938272,0,0,0.04938271604938272,29.629629629629633,0)" xlink:href="#bM"/><use transform="matrix(0.04938271604938272,0,0,0.04938271604938272,35.50617283950618,0)" xlink:href="#bG"/><use transform="matrix(0.04938271604938272,0,0,0.04938271604938272,45.38271604938272,0)" xlink:href="#bF"/><use transform="matrix(0.04938271604938272,0,0,0.04938271604938272,49.283950617283956,0)" xlink:href="#bG"/><use transform="matrix(0.04938271604938272,0,0,0.04938271604938272,59.1604938271605,0)" xlink:href="#bL"/></g><path fill="#fff" d="M212-179c-10-28-35-45-73-45-59 0-87 40-87 99 0 60 29 101 89 101 43 0 62-24 78-52l27 14C228-24 195 4 139 4 59 4 22-46 18-125c-6-104 99-153 187-111 19 9 31 26 39 46" id="bY"/><path fill="#fff" d="M100-194c62-1 85 37 85 99 1 63-27 99-86 99S16-35 15-95c0-66 28-99 85-99zM99-20c44 1 53-31 53-75 0-43-8-75-51-75s-53 32-53 75 10 74 51 75" id="bZ"/><path fill="#fff" d="M85-194c31 0 48 13 60 33l-1-100h32l1 261h-30c-2-10 0-23-3-31C134-8 116 4 85 4 32 4 16-35 15-94c0-66 23-100 70-100zm9 24c-40 0-46 34-46 75 0 40 6 74 45 74 42 0 51-32 51-76 0-42-9-74-50-73" id="ca"/><g id="R"><use transform="matrix(0.07407407407407407,0,0,0.07407407407407407,0,0)" xlink:href="#bY"/><use transform="matrix(0.07407407407407407,0,0,0.07407407407407407,19.185185185185183,0)" xlink:href="#bZ"/><use transform="matrix(0.07407407407407407,0,0,0.07407407407407407,34,0)" xlink:href="#aO"/><use transform="matrix(0.07407407407407407,0,0,0.07407407407407407,48.81481481481481,0)" xlink:href="#ca"/><use transform="matrix(0.07407407407407407,0,0,0.07407407407407407,63.62962962962962,0)" xlink:href="#aM"/><use transform="matrix(0.07407407407407407,0,0,0.07407407407407407,69.48148148148147,0)" xlink:href="#aL"/><use transform="matrix(0.07407407407407407,0,0,0.07407407407407407,76.88888888888887,0)" xlink:href="#aM"/><use transform="matrix(0.07407407407407407,0,0,0.07407407407407407,82.74074074074072,0)" xlink:href="#bZ"/><use transform="matrix(0.07407407407407407,0,0,0.07407407407407407,97.55555555555553,0)" xlink:href="#aO"/></g><g id="S"><use transform="matrix(0.07407407407407407,0,0,0.07407407407407407,0,0)" xlink:href="#bo"/><use transform="matrix(0.07407407407407407,0,0,0.07407407407407407,8.814814814814815,0)" xlink:href="#aY"/><use transform="matrix(0.07407407407407407,0,0,0.07407407407407407,23.629629629629623,0)" xlink:href="#bu"/><use transform="matrix(0.07407407407407407,0,0,0.07407407407407407,36.96296296296296,0)" xlink:href="#aU"/><use transform="matrix(0.07407407407407407,0,0,0.07407407407407407,51.77777777777777,0)" xlink:href="#bf"/><use transform="matrix(0.07407407407407407,0,0,0.07407407407407407,66.59259259259258,0)" xlink:href="#aZ"/><use transform="matrix(0.07407407407407407,0,0,0.07407407407407407,81.40740740740739,0)" xlink:href="#bb"/><use transform="matrix(0.07407407407407407,0,0,0.07407407407407407,96.2222222222222,0)" xlink:href="#aY"/><use transform="matrix(0.07407407407407407,0,0,0.07407407407407407,111.03703703703701,0)" xlink:href="#bo"/></g><path fill="#fff" d="M240 0l2-218c-23 76-54 145-80 218h-23L58-218 59 0H30v-248h44l77 211c21-75 51-140 76-211h43V0h-30" id="cb"/><path fill="#fff" d="M233-177c-1 41-23 64-60 70L243 0h-38l-65-103H63V0H30v-248c88 3 205-21 203 71zM63-129c60-2 137 13 137-47 0-61-80-42-137-45v92" id="cc"/><path fill="#fff" d="M33 0v-248h34V0H33" id="cd"/><g id="T"><use transform="matrix(0.07407407407407407,0,0,0.07407407407407407,0,0)" xlink:href="#cb"/><use transform="matrix(0.07407407407407407,0,0,0.07407407407407407,22.148148148148145,0)" xlink:href="#cc"/><use transform="matrix(0.07407407407407407,0,0,0.07407407407407407,41.33333333333333,0)" xlink:href="#cd"/></g><g id="U"><use transform="matrix(0.07407407407407407,0,0,0.07407407407407407,0,0)" xlink:href="#aY"/><use transform="matrix(0.07407407407407407,0,0,0.07407407407407407,14.814814814814813,0)" xlink:href="#bb"/><use transform="matrix(0.07407407407407407,0,0,0.07407407407407407,29.629629629629626,0)" xlink:href="#bu"/><use transform="matrix(0.07407407407407407,0,0,0.07407407407407407,42.96296296296296,0)" xlink:href="#bu"/></g><path fill="#333" d="M24 0v-261h32V0H24" id="ce"/><g id="V"><use transform="matrix(0.07407407407407407,0,0,0.07407407407407407,0,0)" xlink:href="#ce"/><use transform="matrix(0.07407407407407407,0,0,0.07407407407407407,5.851851851851851,0)" xlink:href="#aY"/><use transform="matrix(0.07407407407407407,0,0,0.07407407407407407,20.666666666666664,0)" xlink:href="#bu"/><use transform="matrix(0.07407407407407407,0,0,0.07407407407407407,34,0)" xlink:href="#aX"/><use transform="matrix(0.07407407407407407,0,0,0.07407407407407407,39.85185185185185,0)" xlink:href="#bf"/><use transform="matrix(0.07407407407407407,0,0,0.07407407407407407,54.66666666666666,0)" xlink:href="#aZ"/></g><path fill="#333" d="M206 0h-36l-40-164L89 0H53L-1-190h32L70-26l43-164h34l41 164 42-164h31" id="cf"/><g id="W"><use transform="matrix(0.07407407407407407,0,0,0.07407407407407407,0,0)" xlink:href="#cf"/><use transform="matrix(0.07407407407407407,0,0,0.07407407407407407,19.185185185185183,0)" xlink:href="#bg"/></g><path fill="#333" d="M96-169c-40 0-48 33-48 73s9 75 48 75c24 0 41-14 43-38l32 2c-6 37-31 61-74 61-59 0-76-41-82-99-10-93 101-131 147-64 4 7 5 14 7 22l-32 3c-4-21-16-35-41-35" id="cg"/><g id="X"><use transform="matrix(0.07407407407407407,0,0,0.07407407407407407,0,0)" xlink:href="#cg"/><use transform="matrix(0.07407407407407407,0,0,0.07407407407407407,13.333333333333332,0)" xlink:href="#bf"/><use transform="matrix(0.07407407407407407,0,0,0.07407407407407407,28.148148148148145,0)" xlink:href="#bk"/><use transform="matrix(0.07407407407407407,0,0,0.07407407407407407,42.96296296296296,0)" xlink:href="#ba"/><use transform="matrix(0.07407407407407407,0,0,0.07407407407407407,57.77777777777777,0)" xlink:href="#bt"/><use transform="matrix(0.07407407407407407,0,0,0.07407407407407407,79.92592592592592,0)" xlink:href="#aY"/><use transform="matrix(0.07407407407407407,0,0,0.07407407407407407,94.74074074074073,0)" xlink:href="#bt"/></g><path d="M212-179c-10-28-35-45-73-45-59 0-87 40-87 99 0 60 29 101 89 101 43 0 62-24 78-52l27 14C228-24 195 4 139 4 59 4 22-46 18-125c-6-104 99-153 187-111 19 9 31 26 39 46" id="ch"/><g id="Y"><use transform="matrix(0.1111111111111111,0,0,0.1111111111111111,0,0)" xlink:href="#ch"/><use transform="matrix(0.1111111111111111,0,0,0.1111111111111111,28.777777777777775,0)" xlink:href="#bP"/><use transform="matrix(0.1111111111111111,0,0,0.1111111111111111,37.55555555555555,0)" xlink:href="#bA"/><use transform="matrix(0.1111111111111111,0,0,0.1111111111111111,59.77777777777777,0)" xlink:href="#bD"/><use transform="matrix(0.1111111111111111,0,0,0.1111111111111111,82,0)" xlink:href="#bG"/><use transform="matrix(0.1111111111111111,0,0,0.1111111111111111,104.22222222222223,0)" xlink:href="#bF"/><use transform="matrix(0.1111111111111111,0,0,0.1111111111111111,113,0)" xlink:href="#bG"/><use transform="matrix(0.1111111111111111,0,0,0.1111111111111111,135.22222222222223,0)" xlink:href="#bL"/></g><g id="Z"><use transform="matrix(0.05,0,0,0.05,0,0)" xlink:href="#bh"/><use transform="matrix(0.05,0,0,0.05,10.950000000000001,0)" xlink:href="#aR"/><use transform="matrix(0.05,0,0,0.05,22.950000000000003,0)" xlink:href="#aS"/><use transform="matrix(0.05,0,0,0.05,34.95,0)" xlink:href="#aT"/></g><g id="aa"><use transform="matrix(0.07407407407407407,0,0,0.07407407407407407,0,0)" xlink:href="#bt"/><use transform="matrix(0.07407407407407407,0,0,0.07407407407407407,22.148148148148145,0)" xlink:href="#bu"/><use transform="matrix(0.07407407407407407,0,0,0.07407407407407407,35.48148148148148,0)" xlink:href="#ba"/><use transform="matrix(0.07407407407407407,0,0,0.07407407407407407,50.29629629629629,0)" xlink:href="#aW"/><use transform="matrix(0.07407407407407407,0,0,0.07407407407407407,57.703703703703695,0)" xlink:href="#bv"/><use transform="matrix(0.07407407407407407,0,0,0.07407407407407407,71.03703703703702,0)" xlink:href="#aU"/><use transform="matrix(0.07407407407407407,0,0,0.07407407407407407,85.85185185185183,0)" xlink:href="#aY"/><use transform="matrix(0.07407407407407407,0,0,0.07407407407407407,100.66666666666664,0)" xlink:href="#ba"/><use transform="matrix(0.07407407407407407,0,0,0.07407407407407407,115.48148148148145,0)" xlink:href="#aX"/><use transform="matrix(0.07407407407407407,0,0,0.07407407407407407,121.33333333333329,0)" xlink:href="#bb"/></g><g id="ab"><use transform="matrix(0.05,0,0,0.05,0,0)" xlink:href="#bh"/><use transform="matrix(0.05,0,0,0.05,10.950000000000001,0)" xlink:href="#aR"/><use transform="matrix(0.05,0,0,0.05,22.950000000000003,0)" xlink:href="#bA"/><use transform="matrix(0.05,0,0,0.05,32.95,0)" xlink:href="#bB"/></g><g id="ac"><use transform="matrix(0.1111111111111111,0,0,0.1111111111111111,0,0)" xlink:href="#be"/><use transform="matrix(0.1111111111111111,0,0,0.1111111111111111,22.88888888888889,0)" xlink:href="#bM"/><use transform="matrix(0.1111111111111111,0,0,0.1111111111111111,36.111111111111114,0)" xlink:href="#bD"/><use transform="matrix(0.1111111111111111,0,0,0.1111111111111111,58.33333333333333,0)" xlink:href="#bG"/><use transform="matrix(0.1111111111111111,0,0,0.1111111111111111,80.55555555555556,0)" xlink:href="#bN"/><use transform="matrix(0.1111111111111111,0,0,0.1111111111111111,100.55555555555556,0)" xlink:href="#bW"/><use transform="matrix(0.1111111111111111,0,0,0.1111111111111111,111.66666666666667,0)" xlink:href="#bJ"/><use transform="matrix(0.1111111111111111,0,0,0.1111111111111111,133.88888888888889,0)" xlink:href="#bM"/><use transform="matrix(0.1111111111111111,0,0,0.1111111111111111,147.11111111111111,0)" xlink:href="#bO"/><use transform="matrix(0.1111111111111111,0,0,0.1111111111111111,180.33333333333334,0)" xlink:href="#bF"/><use transform="matrix(0.1111111111111111,0,0,0.1111111111111111,189.11111111111111,0)" xlink:href="#bG"/><use transform="matrix(0.1111111111111111,0,0,0.1111111111111111,211.33333333333334,0)" xlink:href="#bL"/></g><path fill="#fff" d="M114-163C36-179 61-72 57 0H25l-1-190h30c1 12-1 29 2 39 6-27 23-49 58-41v29" id="ci"/><g id="ad"><use transform="matrix(0.07407407407407407,0,0,0.07407407407407407,0,0)" xlink:href="#cb"/><use transform="matrix(0.07407407407407407,0,0,0.07407407407407407,22.148148148148145,0)" xlink:href="#aK"/><use transform="matrix(0.07407407407407407,0,0,0.07407407407407407,36.96296296296296,0)" xlink:href="#aP"/><use transform="matrix(0.07407407407407407,0,0,0.07407407407407407,50.29629629629629,0)" xlink:href="#aL"/><use transform="matrix(0.07407407407407407,0,0,0.07407407407407407,57.703703703703695,0)" xlink:href="#aN"/><use transform="matrix(0.07407407407407407,0,0,0.07407407407407407,72.5185185185185,0)" xlink:href="#ci"/></g><path fill="#fff" d="M185-189c-5-48-123-54-124 2 14 75 158 14 163 119 3 78-121 87-175 55-17-10-28-26-33-46l33-7c5 56 141 63 141-1 0-78-155-14-162-118-5-82 145-84 179-34 5 7 8 16 11 25" id="cj"/><path fill="#fff" d="M84 4C-5 8 30-112 23-190h32v120c0 31 7 50 39 49 72-2 45-101 50-169h31l1 190h-30c-1-10 1-25-2-33-11 22-28 36-60 37" id="ck"/><path fill="#fff" d="M210-169c-67 3-38 105-44 169h-31v-121c0-29-5-50-35-48C34-165 62-65 56 0H25l-1-190h30c1 10-1 24 2 32 10-44 99-50 107 0 11-21 27-35 58-36 85-2 47 119 55 194h-31v-121c0-29-5-49-35-48" id="cl"/><path fill="#fff" d="M179-190L93 31C79 59 56 82 12 73V49c39 6 53-20 64-50L1-190h34L92-34l54-156h33" id="cm"/><g id="ae"><use transform="matrix(0.07407407407407407,0,0,0.07407407407407407,0,0)" xlink:href="#cj"/><use transform="matrix(0.07407407407407407,0,0,0.07407407407407407,17.77777777777778,0)" xlink:href="#ck"/><use transform="matrix(0.07407407407407407,0,0,0.07407407407407407,32.592592592592595,0)" xlink:href="#cl"/><use transform="matrix(0.07407407407407407,0,0,0.07407407407407407,54.74074074074074,0)" xlink:href="#cl"/><use transform="matrix(0.07407407407407407,0,0,0.07407407407407407,76.88888888888889,0)" xlink:href="#aK"/><use transform="matrix(0.07407407407407407,0,0,0.07407407407407407,91.7037037037037,0)" xlink:href="#ci"/><use transform="matrix(0.07407407407407407,0,0,0.07407407407407407,100.51851851851852,0)" xlink:href="#cm"/></g><g id="af"><use transform="matrix(0.07407407407407407,0,0,0.07407407407407407,0,0)" xlink:href="#bn"/><use transform="matrix(0.07407407407407407,0,0,0.07407407407407407,22.148148148148145,0)" xlink:href="#bi"/></g><path d="M84 4C-5 8 30-112 23-190h32v120c0 31 7 50 39 49 72-2 45-101 50-169h31l1 190h-30c-1-10 1-25-2-33-11 22-28 36-60 37" id="cn"/><g id="ag"><use transform="matrix(0.07407407407407407,0,0,0.07407407407407407,0,0)" xlink:href="#bh"/><use transform="matrix(0.07407407407407407,0,0,0.07407407407407407,16.22222222222222,0)" xlink:href="#bA"/><use transform="matrix(0.07407407407407407,0,0,0.07407407407407407,31.037037037037035,0)" xlink:href="#bD"/><use transform="matrix(0.07407407407407407,0,0,0.07407407407407407,45.85185185185185,0)" xlink:href="#bE"/><use transform="matrix(0.07407407407407407,0,0,0.07407407407407407,53.25925925925926,0)" xlink:href="#cn"/><use transform="matrix(0.07407407407407407,0,0,0.07407407407407407,68.07407407407406,0)" xlink:href="#bM"/><use transform="matrix(0.07407407407407407,0,0,0.07407407407407407,76.88888888888887,0)" xlink:href="#bA"/><use transform="matrix(0.07407407407407407,0,0,0.07407407407407407,91.70370370370368,0)" xlink:href="#bN"/></g><g id="ah"><use transform="matrix(0.05,0,0,0.05,0,0)" xlink:href="#aS"/><use transform="matrix(0.05,0,0,0.05,12,0)" xlink:href="#bl"/><use transform="matrix(0.05,0,0,0.05,24.950000000000003,0)" xlink:href="#ch"/><use transform="matrix(0.05,0,0,0.05,37.900000000000006,0)" xlink:href="#bj"/><use transform="matrix(0.05,0,0,0.05,51.900000000000006,0)" xlink:href="#bc"/><use transform="matrix(0.05,0,0,0.05,64.85000000000001,0)" xlink:href="#aS"/><use transform="matrix(0.05,0,0,0.05,76.85000000000001,0)" xlink:href="#bc"/></g><g id="ai"><use transform="matrix(0.07407407407407407,0,0,0.07407407407407407,0,0)" xlink:href="#bE"/><use transform="matrix(0.07407407407407407,0,0,0.07407407407407407,7.4074074074074066,0)" xlink:href="#bM"/><use transform="matrix(0.07407407407407407,0,0,0.07407407407407407,16.22222222222222,0)" xlink:href="#bA"/><use transform="matrix(0.07407407407407407,0,0,0.07407407407407407,31.037037037037035,0)" xlink:href="#bD"/><use transform="matrix(0.07407407407407407,0,0,0.07407407407407407,45.85185185185185,0)" xlink:href="#bE"/><use transform="matrix(0.07407407407407407,0,0,0.07407407407407407,53.25925925925926,0)" xlink:href="#bH"/><use transform="matrix(0.07407407407407407,0,0,0.07407407407407407,68.07407407407406,0)" xlink:href="#bM"/><use transform="matrix(0.07407407407407407,0,0,0.07407407407407407,76.88888888888887,0)" xlink:href="#bA"/><use transform="matrix(0.07407407407407407,0,0,0.07407407407407407,91.70370370370368,0)" xlink:href="#bN"/><use transform="matrix(0.07407407407407407,0,0,0.07407407407407407,105.03703703703701,0)" xlink:href="#bC"/><use transform="matrix(0.07407407407407407,0,0,0.07407407407407407,119.8518518518518,0)" xlink:href="#bJ"/><use transform="matrix(0.07407407407407407,0,0,0.07407407407407407,134.66666666666663,0)" xlink:href="#bG"/><use transform="matrix(0.07407407407407407,0,0,0.07407407407407407,149.48148148148144,0)" xlink:href="#bN"/><use transform="matrix(0.07407407407407407,0,0,0.07407407407407407,162.81481481481478,0)" xlink:href="#bA"/></g><g id="aj"><use transform="matrix(0.07407407407407407,0,0,0.07407407407407407,0,0)" xlink:href="#bD"/><use transform="matrix(0.07407407407407407,0,0,0.07407407407407407,14.814814814814813,0)" xlink:href="#bL"/><use transform="matrix(0.07407407407407407,0,0,0.07407407407407407,29.629629629629626,0)" xlink:href="#bA"/></g><g id="ak"><use transform="matrix(0.07407407407407407,0,0,0.07407407407407407,0,0)" xlink:href="#bL"/><use transform="matrix(0.07407407407407407,0,0,0.07407407407407407,14.814814814814813,0)" xlink:href="#bA"/><use transform="matrix(0.07407407407407407,0,0,0.07407407407407407,29.629629629629626,0)" xlink:href="#bG"/><use transform="matrix(0.07407407407407407,0,0,0.07407407407407407,44.44444444444444,0)" xlink:href="#bI"/><use transform="matrix(0.07407407407407407,0,0,0.07407407407407407,59.25925925925925,0)" xlink:href="#bA"/><use transform="matrix(0.07407407407407407,0,0,0.07407407407407407,74.07407407407406,0)" xlink:href="#bM"/></g><g id="al"><use transform="matrix(0.07407407407407407,0,0,0.07407407407407407,0,0)" xlink:href="#bM"/><use transform="matrix(0.07407407407407407,0,0,0.07407407407407407,8.814814814814815,0)" xlink:href="#bA"/><use transform="matrix(0.07407407407407407,0,0,0.07407407407407407,23.629629629629623,0)" xlink:href="#bN"/><use transform="matrix(0.07407407407407407,0,0,0.07407407407407407,36.96296296296296,0)" xlink:href="#bC"/><use transform="matrix(0.07407407407407407,0,0,0.07407407407407407,51.77777777777777,0)" xlink:href="#bJ"/><use transform="matrix(0.07407407407407407,0,0,0.07407407407407407,66.59259259259258,0)" xlink:href="#bG"/><use transform="matrix(0.07407407407407407,0,0,0.07407407407407407,81.40740740740739,0)" xlink:href="#bI"/><use transform="matrix(0.07407407407407407,0,0,0.07407407407407407,96.2222222222222,0)" xlink:href="#bA"/><use transform="matrix(0.07407407407407407,0,0,0.07407407407407407,111.03703703703701,0)" xlink:href="#bM"/></g><g id="am"><use transform="matrix(0.07407407407407407,0,0,0.07407407407407407,0,0)" xlink:href="#bO"/><use transform="matrix(0.07407407407407407,0,0,0.07407407407407407,22.148148148148145,0)" xlink:href="#bN"/><use transform="matrix(0.07407407407407407,0,0,0.07407407407407407,35.48148148148148,0)" xlink:href="#bH"/><use transform="matrix(0.07407407407407407,0,0,0.07407407407407407,50.29629629629629,0)" xlink:href="#bE"/><use transform="matrix(0.07407407407407407,0,0,0.07407407407407407,57.703703703703695,0)" xlink:href="#bB"/><use transform="matrix(0.07407407407407407,0,0,0.07407407407407407,71.03703703703702,0)" xlink:href="#bC"/><use transform="matrix(0.07407407407407407,0,0,0.07407407407407407,85.85185185185183,0)" xlink:href="#bA"/></g><g id="an"><use transform="matrix(0.07407407407407407,0,0,0.07407407407407407,0,0)" xlink:href="#bA"/><use transform="matrix(0.07407407407407407,0,0,0.07407407407407407,14.814814814814813,0)" xlink:href="#bI"/><use transform="matrix(0.07407407407407407,0,0,0.07407407407407407,29.629629629629626,0)" xlink:href="#bN"/><use transform="matrix(0.07407407407407407,0,0,0.07407407407407407,42.96296296296296,0)" xlink:href="#bN"/></g><g id="ao"><use transform="matrix(0.07407407407407407,0,0,0.07407407407407407,0,0)" xlink:href="#bP"/><use transform="matrix(0.07407407407407407,0,0,0.07407407407407407,5.851851851851851,0)" xlink:href="#bA"/><use transform="matrix(0.07407407407407407,0,0,0.07407407407407407,20.666666666666664,0)" xlink:href="#bN"/><use transform="matrix(0.07407407407407407,0,0,0.07407407407407407,34,0)" xlink:href="#bF"/><use transform="matrix(0.07407407407407407,0,0,0.07407407407407407,39.85185185185185,0)" xlink:href="#bJ"/><use transform="matrix(0.07407407407407407,0,0,0.07407407407407407,54.66666666666666,0)" xlink:href="#bG"/></g><g id="ap"><use transform="matrix(0.07407407407407407,0,0,0.07407407407407407,0,0)" xlink:href="#bQ"/><use transform="matrix(0.07407407407407407,0,0,0.07407407407407407,19.185185185185183,0)" xlink:href="#bK"/></g><g id="aq"><use transform="matrix(0.07407407407407407,0,0,0.07407407407407407,0,0)" xlink:href="#bR"/><use transform="matrix(0.07407407407407407,0,0,0.07407407407407407,13.333333333333332,0)" xlink:href="#bJ"/><use transform="matrix(0.07407407407407407,0,0,0.07407407407407407,28.148148148148145,0)" xlink:href="#bL"/><use transform="matrix(0.07407407407407407,0,0,0.07407407407407407,42.96296296296296,0)" xlink:href="#bH"/><use transform="matrix(0.07407407407407407,0,0,0.07407407407407407,57.77777777777777,0)" xlink:href="#bO"/><use transform="matrix(0.07407407407407407,0,0,0.07407407407407407,79.92592592592592,0)" xlink:href="#bA"/><use transform="matrix(0.07407407407407407,0,0,0.07407407407407407,94.74074074074073,0)" xlink:href="#bO"/></g><g id="ar"><use transform="matrix(0.08641975308641976,0,0,0.08641975308641976,0,0)" xlink:href="#bp"/><use transform="matrix(0.08641975308641976,0,0,0.08641975308641976,20.740740740740744,0)" xlink:href="#bR"/><use transform="matrix(0.08641975308641976,0,0,0.08641975308641976,36.296296296296305,0)" xlink:href="#bD"/><use transform="matrix(0.08641975308641976,0,0,0.08641975308641976,53.580246913580254,0)" xlink:href="#bP"/><use transform="matrix(0.08641975308641976,0,0,0.08641975308641976,60.407407407407426,0)" xlink:href="#bF"/><use transform="matrix(0.08641975308641976,0,0,0.08641975308641976,67.23456790123458,0)" xlink:href="#bG"/><use transform="matrix(0.08641975308641976,0,0,0.08641975308641976,84.51851851851853,0)" xlink:href="#bL"/></g><g id="as"><use transform="matrix(0.08641975308641976,0,0,0.08641975308641976,0,0)" xlink:href="#bD"/><use transform="matrix(0.08641975308641976,0,0,0.08641975308641976,17.283950617283953,0)" xlink:href="#bG"/><use transform="matrix(0.08641975308641976,0,0,0.08641975308641976,34.567901234567906,0)" xlink:href="#bI"/></g><g id="at"><use transform="matrix(0.08641975308641976,0,0,0.08641975308641976,0,0)" xlink:href="#aS"/><use transform="matrix(0.08641975308641976,0,0,0.08641975308641976,20.740740740740744,0)" xlink:href="#bG"/><use transform="matrix(0.08641975308641976,0,0,0.08641975308641976,38.0246913580247,0)" xlink:href="#bR"/><use transform="matrix(0.08641975308641976,0,0,0.08641975308641976,53.580246913580254,0)" xlink:href="#bJ"/><use transform="matrix(0.08641975308641976,0,0,0.08641975308641976,70.8641975308642,0)" xlink:href="#bI"/><use transform="matrix(0.08641975308641976,0,0,0.08641975308641976,88.14814814814815,0)" xlink:href="#bF"/><use transform="matrix(0.08641975308641976,0,0,0.08641975308641976,94.97530864197532,0)" xlink:href="#bG"/><use transform="matrix(0.08641975308641976,0,0,0.08641975308641976,112.25925925925927,0)" xlink:href="#bL"/></g><path d="M182-130c37 4 62 22 62 59C244 23 116-4 24 0v-248c84 5 203-23 205 63 0 31-19 50-47 55zM76-148c40-3 101 13 101-30 0-44-60-28-101-31v61zm0 110c48-3 116 14 116-37 0-48-69-32-116-35v72" id="co"/><path d="M24 0v-248h52V0H24" id="cp"/><g id="au"><use transform="matrix(0.14814814814814817,0,0,0.14814814814814817,0,0)" xlink:href="#co"/><use transform="matrix(0.14814814814814817,0,0,0.14814814814814817,38.370370370370374,0)" xlink:href="#cp"/></g><path d="M25 0v-261h50V0H25" id="cq"/><g id="av"><use transform="matrix(0.14814814814814817,0,0,0.14814814814814817,0,0)" xlink:href="#bx"/><use transform="matrix(0.14814814814814817,0,0,0.14814814814814817,38.370370370370374,0)" xlink:href="#aI"/><use transform="matrix(0.14814814814814817,0,0,0.14814814814814817,70.81481481481482,0)" xlink:href="#ax"/><use transform="matrix(0.14814814814814817,0,0,0.14814814814814817,100.44444444444446,0)" xlink:href="#cq"/><use transform="matrix(0.14814814814814817,0,0,0.14814814814814817,115.25925925925928,0)" xlink:href="#bV"/><use transform="matrix(0.14814814814814817,0,0,0.14814814814814817,144.8888888888889,0)" xlink:href="#aF"/><use transform="matrix(0.14814814814814817,0,0,0.14814814814814817,162.51851851851853,0)" xlink:href="#aH"/><use transform="matrix(0.14814814814814817,0,0,0.14814814814814817,177.33333333333334,0)" xlink:href="#by"/><use transform="matrix(0.14814814814814817,0,0,0.14814814814814817,206.962962962963,0)" xlink:href="#aD"/></g></defs></g></svg>